<?xml version="1.0" encoding="UTF-8" standalone="no"?>
<!-- Created with Inkscape (http://www.inkscape.org/) -->

<svg
   width="1024.1879"
   height="1024.0082"
   viewBox="0 0 1024.1879 1024.0082"
   version="1.1"
   id="svg461"
   xmlns:xlink="http://www.w3.org/1999/xlink"
   xmlns="http://www.w3.org/2000/svg"
   xmlns:svg="http://www.w3.org/2000/svg">
  <defs
     id="defs458">
    <pattern
       xlink:href="#Packedcircles"
       id="pattern4758"
       patternTransform="matrix(9.7727053,0,0,9.7727053,11.637494,3.6374856)" />
    <pattern
       patternUnits="userSpaceOnUse"
       width="1"
       height="1.73205080756"
       patternTransform="translate(0,0) scale(10,10)"
       id="Packedcircles">
      <circle
         style="fill:black;stroke:none"
         cx="0"
         cy="0.5"
         r="0.5"
         id="circle2845" />
      <circle
         style="fill:black;stroke:none"
         cx="1"
         cy="0.5"
         r="0.5"
         id="circle2847" />
      <circle
         style="fill:black;stroke:none"
         cx="0.5"
         cy="1.36602540378"
         r="0.5"
         id="circle2849" />
      <circle
         style="fill:black;stroke:none"
         cx="0.5"
         cy="-0.366025403784"
         r="0.5"
         id="circle2851" />
    </pattern>
    <color-profile
       name="Agfa-:-Swop-Standard"
       xlink:href="file:///C:/Windows/system32/spool/drivers/color/RSWOP.icm"
       id="color-profile6428" />
    <linearGradient
       id="linearGradient6115">
      <stop
         style="stop-color:#00998f;stop-opacity:1;"
         offset="0"
         id="stop6111" />
      <stop
         style="stop-color:#003399;stop-opacity:0;"
         offset="0.80000001"
         id="stop6113" />
    </linearGradient>
    <radialGradient
       xlink:href="#linearGradient1331"
       id="radialGradient1333"
       cx="63.999901"
       cy="63.999939"
       fx="63.999897"
       fy="63.999939"
       r="51.25"
       gradientUnits="userSpaceOnUse"
       gradientTransform="matrix(10.614645,6.7353823e-6,-4.3734527e-6,9.9902371,-167.32237,-127.37534)" />
    <linearGradient
       id="linearGradient1331">
      <stop
         style="stop-color:#ffffff;stop-opacity:1;"
         offset="0.40000001"
         id="stop1327" />
      <stop
         style="stop-color:#f7f7f7;stop-opacity:1;"
         offset="1"
         id="stop1329" />
    </linearGradient>
    <clipPath
       clipPathUnits="userSpaceOnUse"
       id="clipPath25189">
      <path
         id="path25191"
         style="font-size:192px;line-height:0px;font-family:'Fredoka One';-inkscape-font-specification:'Fredoka One';font-variation-settings:normal;text-align:center;text-orientation:upright;text-anchor:middle;display:none;vector-effect:none;fill:#000000;fill-opacity:1;stroke-width:6.35022;stroke-linecap:butt;stroke-linejoin:miter;stroke-miterlimit:4;stroke-dasharray:50.8019, 50.8019;stroke-dashoffset:0;stroke-opacity:1;-inkscape-stroke:none;stop-color:#000000"
         d="m 306.9375,168.05664 c -47.71903,5.13714 -83.43478,43.59553 -112.3509,78.68732 -24.64531,29.04191 -33.26108,73.06579 -10.42432,105.73181 32.94401,49.09278 80.01796,86.47386 119.87472,129.74088 17.60397,16.4895 41.06854,32.96957 10.26297,49.56934 -40.95416,43.96043 -86.62756,83.85051 -123.78034,131.13591 -24.7319,30.93426 -26.78757,76.46803 -1.48049,107.84958 27.70344,37.20615 63.88243,74.65299 110.9573,84.51968 50.39222,4.94465 87.1498,-38.03936 119.32476,-70.30779 30.9134,-31.318 61.7833,-62.679 92.67888,-94.01462 47.91817,46.68049 92.05819,97.51007 142.94158,140.96998 27.51327,23.44572 68.74861,32.80149 100.75967,12.6317 41.0573,-25.11499 79.81528,-61.20578 95.44047,-107.86481 12.61473,-51.74919 -31.45893,-92.89781 -64.28969,-126.12864 -32.14468,-32.8233 -64.25431,-65.68112 -96.40277,-98.50081 46.16956,-48.4987 96.05179,-93.68244 139.46608,-144.66557 25.03359,-29.23185 32.23942,-73.45439 9.25817,-106.09302 C 812.57655,222.05167 776.97342,183.58126 730.20817,169.78913 681.94024,160.03304 643.2057,199.92424 612.45858,231.10631 578.9714,265.08095 545.48702,299.05839 512,333.0332 464.93757,286.90937 421.0654,237.3193 371.48558,193.90365 352.99889,179.68267 330.96078,167.39061 306.9375,168.05664 Z" />
      <path
         id="lpe_path-effect25193"
         style="font-size:192px;line-height:0px;font-family:'Fredoka One';-inkscape-font-specification:'Fredoka One';font-variation-settings:normal;text-align:center;text-orientation:upright;text-anchor:middle;display:inline;vector-effect:none;fill:#000000;fill-opacity:1;stroke-width:6.35022;stroke-linecap:butt;stroke-linejoin:miter;stroke-miterlimit:4;stroke-dasharray:50.8019, 50.8019;stroke-dashoffset:0;stroke-opacity:1;-inkscape-stroke:none;stop-color:#000000"
         class="powerclip"
         d="M -5.0141699,-2.9848479 H 1029.1738 V 1029.0081 H -5.0141699 Z M 306.9375,168.05664 c -47.71903,5.13714 -83.43478,43.59553 -112.3509,78.68732 -24.64531,29.04191 -33.26108,73.06579 -10.42432,105.73181 32.94401,49.09278 80.01796,86.47386 119.87472,129.74088 17.60397,16.4895 41.06854,32.96957 10.26297,49.56934 -40.95416,43.96043 -86.62756,83.85051 -123.78034,131.13591 -24.7319,30.93426 -26.78757,76.46803 -1.48049,107.84958 27.70344,37.20615 63.88243,74.65299 110.9573,84.51968 50.39222,4.94465 87.1498,-38.03936 119.32476,-70.30779 30.9134,-31.318 61.7833,-62.679 92.67888,-94.01462 47.91817,46.68049 92.05819,97.51007 142.94158,140.96998 27.51327,23.44572 68.74861,32.80149 100.75967,12.6317 41.0573,-25.11499 79.81528,-61.20578 95.44047,-107.86481 12.61473,-51.74919 -31.45893,-92.89781 -64.28969,-126.12864 -32.14468,-32.8233 -64.25431,-65.68112 -96.40277,-98.50081 46.16956,-48.4987 96.05179,-93.68244 139.46608,-144.66557 25.03359,-29.23185 32.23942,-73.45439 9.25817,-106.09302 C 812.57655,222.05167 776.97342,183.58126 730.20817,169.78913 681.94024,160.03304 643.2057,199.92424 612.45858,231.10631 578.9714,265.08095 545.48702,299.05839 512,333.0332 464.93757,286.90937 421.0654,237.3193 371.48558,193.90365 352.99889,179.68267 330.96078,167.39061 306.9375,168.05664 Z" />
    </clipPath>
    <radialGradient
       xlink:href="#linearGradient6115"
       id="radialGradient6117"
       cx="511.99945"
       cy="511.99966"
       fx="511.99945"
       fy="511.99966"
       r="322.6347"
       gradientTransform="matrix(1.6861191,1.0250837e-6,-4.8901774e-7,1.586933,-351.27821,-300.51002)"
       gradientUnits="userSpaceOnUse" />
  </defs>
  <g
     id="g8246"
     clip-path="url(#clipPath25189)"
     style="display:inline"
     class="UnoptimicedTransforms"
     transform="translate(0.01416995)">
    <path
       style="display:inline;fill:none;stroke:#000000;stroke-width:1.28;stroke-linecap:butt;stroke-linejoin:bevel;stroke-dasharray:2.56, 0.64;stroke-dashoffset:0;stroke-opacity:1;paint-order:normal"
       id="circle4254"
       d="M 899.97938,736 A 448,448 0 0 1 472.95423,958.29522 448,448 0 0 1 91.017707,665.22503 448,448 0 0 1 195.21616,195.21617" />
    <path
       style="display:inline;opacity:1;fill:none;stroke:#000000;stroke-width:1.28;stroke-linecap:butt;stroke-linejoin:bevel;stroke-dasharray:0.384;stroke-dashoffset:0;stroke-opacity:1;paint-order:normal"
       id="path24276"
       d="m -715.45317,-715.64569 a 288.0036,288.0036 0 0 1 378.97479,-24.83933 288.0036,288.0036 0 0 1 74.09295,372.49042"
       transform="scale(-1)" />
    <circle
       style="display:inline;opacity:1;fill:none;fill-opacity:1;stroke:url(#pattern4758);stroke-width:32;stroke-opacity:1;stop-color:#000000"
       id="path4504"
       cx="512.00018"
       cy="504"
       r="343.96613" />
    <path
       style="display:inline;fill:none;stroke:#000000;stroke-width:5.12;stroke-dasharray:1.28, 0.512;stroke-dashoffset:0;stroke-opacity:1"
       id="path377"
       clip-path="none"
       d="m 365.31426,302.29034 a 256,256 0 0 1 302.6785,6.60446 256,256 0 0 1 84.71839,290.65561" />
  </g>
  <path
     id="path21859"
     style="font-size:192px;line-height:0px;font-family:'Fredoka One';-inkscape-font-specification:'Fredoka One';font-variation-settings:normal;text-align:center;text-orientation:upright;text-anchor:middle;display:inline;fill:none;fill-opacity:1;stroke:#000000;stroke-width:16;stroke-linecap:butt;stroke-linejoin:miter;stroke-miterlimit:4;stroke-dasharray:none;stroke-dashoffset:0;stroke-opacity:1;stop-color:#000000"
     d="m 713.64453,176.01758 c -1.14691,0.0317 -2.22978,0.087 -3.43559,0.18318 -1.6957,0.13966 -3.24892,0.33164 -4.96126,0.60725 -5.8232,0.93501 -11.49621,2.66901 -16.95276,4.88926 -0.36474,0.15055 -1.10647,0.46626 -1.61552,0.68004 -11.17211,4.85349 -21.40787,11.62778 -30.97047,19.12247 -8.76321,6.91039 -16.96569,14.50119 -24.84177,22.4 -9.85614,9.79868 -19.48795,19.81964 -29.29962,29.66262 -29.85113,30.28274 -59.7035,60.56426 -89.55387,90.84776 -40.96786,-41.54333 -81.89743,-83.12501 -122.94474,-124.58958 -13.1825,-12.72939 -27.33909,-24.72327 -43.52599,-33.47524 -10.39381,-5.58284 -21.821,-9.69838 -33.69249,-10.26479 -11.67991,-0.56708 -23.22326,2.76654 -33.6664,7.79606 -13.68606,6.55985 -25.93253,15.72303 -37.42024,25.55696 -11.34695,9.78319 -22.03491,20.35595 -31.67592,31.83205 -2.46268,2.94429 -4.9643,6.07223 -7.31534,9.18732 -6.01941,7.97605 -11.54295,16.56135 -15.74404,25.71127 -0.81679,1.77131 -1.57492,3.56928 -2.28828,5.38462 -0.4769,1.24597 -1.02396,2.72144 -1.47256,4.0759 -2.72962,8.03476 -4.16636,16.55023 -3.80283,25.04519 0.047,0.99828 0.12552,2.2565 0.23862,3.35314 0.11275,1.1901 0.28695,2.47355 0.44693,3.47499 0.32678,2.03846 0.74066,3.87488 1.23348,5.88002 0.52616,2.09458 1.09328,4.01331 1.78797,6.07441 3.86695,11.33084 10.04194,21.72737 16.98714,31.42383 8.40366,11.63032 18.28904,22.26531 28.39887,32.48996 34.68448,35.08424 69.33336,70.20515 104.00407,105.30359 4.40684,4.46381 8.81612,8.92522 13.22128,13.39069 -42.08748,43.01518 -84.21394,85.99283 -126.22929,129.07819 -11.97955,12.81005 -23.09847,26.66992 -31.03423,42.3906 -0.61889,1.24075 -1.30978,2.71151 -1.82241,3.84371 -3.2113,7.15976 -5.64464,14.71206 -6.71289,22.50195 -0.0857,0.65295 -0.21688,1.72403 -0.28037,2.37686 -0.28692,2.83191 -0.38035,5.86472 -0.25674,8.59189 0.0508,1.10947 0.11936,2.10825 0.22851,3.26563 0.38673,3.9499 1.15419,7.85809 2.21289,11.68164 0.36602,1.29357 0.82028,2.81241 1.29287,4.16929 3.7343,10.99175 9.65471,21.11159 16.35876,30.53917 6.22868,8.66594 13.17419,16.79969 20.47494,24.57623 4.46092,4.69546 9.20461,9.28142 13.95546,13.57273 9.74673,8.70487 19.97509,16.93386 31.05608,23.88998 10.23912,6.35895 21.26659,11.8038 33.15605,14.20195 4.72578,0.95573 9.56288,1.40759 14.38358,1.19518 0.85432,-0.0438 1.98571,-0.11097 2.94545,-0.20188 2.8359,-0.25561 5.65178,-0.71297 8.4315,-1.32742 0.68382,-0.1537 1.66913,-0.3881 2.46483,-0.59609 3.48111,-0.90398 6.95057,-2.07484 10.2105,-3.39808 1.30298,-0.51598 2.79899,-1.18515 3.936,-1.69138 13.14321,-6.06578 25.00193,-14.58904 35.94899,-23.99182 4.63453,-3.993 9.09862,-8.14909 13.49747,-12.46216 8.85272,-8.66163 17.45848,-17.72068 26.24775,-26.51403 32.25477,-32.7211 64.51077,-65.44099 96.76477,-98.16285 40.98982,41.56692 81.94118,83.17238 123.01518,124.65586 13.1818,12.719 27.33573,24.7049 43.52094,33.44434 6.47237,3.46597 13.29102,6.34052 20.40724,8.18691 0.87849,0.22034 2.02447,0.49941 3.01613,0.70702 7.86368,1.72301 16.05918,1.84041 23.97434,0.3819 4.77381,-0.8517 9.49828,-2.21792 13.9698,-3.91137 5.64496,-2.15267 10.94969,-4.78753 16.1708,-7.79248 8.78647,-5.07582 17.12602,-11.23082 24.97769,-17.7565 3.4523,-2.85512 6.91788,-5.89946 10.15687,-8.87271 12.07619,-11.10612 23.36172,-23.36987 33.16555,-36.62962 4.85714,-6.65141 9.28845,-13.63701 12.90476,-21.04421 0.72346,-1.48888 1.50338,-3.19141 2.18066,-4.79389 3.5019,-8.19816 5.83074,-16.97154 6.11039,-25.91212 0.065,-2.01313 0.0458,-4.06544 -0.083,-5.98946 -0.11554,-1.85279 -0.32362,-3.69935 -0.61234,-5.53304 -0.1112,-0.64178 -0.27608,-1.59205 -0.42585,-2.3544 -0.32101,-1.72014 -0.72421,-3.47395 -1.14287,-5.07758 -0.58328,-2.22951 -1.34046,-4.66349 -2.15293,-6.92444 -0.32336,-0.90844 -0.6144,-1.66254 -0.95608,-2.54593 -0.40201,-1.0231 -0.91299,-2.2565 -1.39063,-3.34765 -0.30517,-0.67525 -0.72326,-1.62319 -1.08654,-2.40101 -7.80426,-16.52823 -19.29806,-30.98941 -31.68055,-44.30884 -6.46926,-6.93602 -13.2151,-13.60545 -19.81812,-20.41301 -35.6705,-36.42827 -71.33004,-72.86727 -106.98901,-109.30683 41.89474,-42.44357 83.83176,-84.84608 125.64036,-127.37423 12.3555,-13.14178 23.9295,-27.30621 32.06277,-43.50077 2.26639,-4.5741 4.25696,-9.44701 5.71484,-14.25 2.11672,-6.97975 3.24738,-14.29792 2.91406,-21.59961 -0.0338,-0.63191 -0.0849,-1.58034 -0.14718,-2.3301 -0.14881,-1.85632 -0.36644,-3.57445 -0.66727,-5.44334 -0.60494,-3.69688 -1.51151,-7.34124 -2.65234,-10.9082 -0.54668,-1.72168 -1.23625,-3.61486 -1.92049,-5.37193 -1.79178,-4.53932 -3.93908,-8.93185 -6.30803,-13.19643 -0.95915,-1.70843 -2.047,-3.57383 -3.12221,-5.30497 -1.98347,-3.20479 -4.09482,-6.32945 -6.30162,-9.38448 -0.96968,-1.3104 -2.0567,-2.80846 -3.11129,-4.16105 -6.80313,-8.86291 -14.39091,-17.23947 -22.18753,-25.13778 -8.52411,-8.6114 -17.5442,-16.7428 -27.13086,-24.1582 -1.22137,-0.92072 -2.60403,-2.00472 -3.92199,-2.94231 -1.92437,-1.39795 -3.74462,-2.66987 -5.73455,-3.98876 -9.16606,-6.07374 -19.03108,-11.27522 -29.62539,-14.35144 -6.2022,-1.76003 -12.64724,-2.74802 -19.10284,-2.6296 z" />
  <path
     d="m 656.80776,512 130.25262,133.08688 c 28.39187,28.39186 42.5878,52.84042 42.5878,73.34565 0,19.71658 -14.19593,43.7708 -42.5878,72.16266 C 758.66851,818.1984 734.61429,832 714.89772,832 c -19.71658,0 -43.7708,-14.19593 -72.16266,-42.5878 L 512.01417,656.79359 381.29328,789.4122 C 353.10675,818.00795 328.8472,832 309.13062,832 c -18.92791,0 -42.98213,-13.8016 -72.16266,-41.40481 -28.39187,-28.39186 -42.5878,-52.44608 -42.5878,-72.16266 0,-20.50523 14.19593,-44.95379 42.5878,-73.34565 L 367.22058,512 236.96796,380.09612 c -28.39187,-28.39187 -42.5878,-52.44609 -42.5878,-72.16266 0,-20.50524 14.19593,-44.95379 42.5878,-73.34566 C 266.14849,206.19593 290.20271,192 309.13062,192 c 19.71658,0 43.7708,14.19593 72.16266,42.5878 L 512.01417,367.20641 642.73506,234.5878 C 671.12692,206.19593 695.18114,192 714.89772,192 c 19.71657,0 43.77079,14.19593 72.16266,42.5878 28.39187,28.39187 42.5878,52.84042 42.5878,73.34566 0,19.71657 -14.19593,43.77079 -42.5878,72.16266 z"
     style="font-size:192px;line-height:0px;font-family:'Fredoka One';-inkscape-font-specification:'Fredoka One';font-variation-settings:normal;text-align:center;text-orientation:upright;text-anchor:middle;display:inline;fill:url(#radialGradient1333);fill-opacity:1;stroke:url(#radialGradient6117);stroke-width:16;stroke-linecap:butt;stroke-linejoin:miter;stroke-miterlimit:4;stroke-dasharray:none;stroke-dashoffset:0;stroke-opacity:1;stop-color:#000000"
     id="path3764" />
</svg>
