<?xml version="1.0" encoding="UTF-8" standalone="no"?>
<!-- Created with Inkscape (http://www.inkscape.org/) -->

<svg
   width="1024"
   height="1024"
   viewBox="0 0 1024 1024"
   version="1.1"
   id="svg461"
   inkscape:version="1.2.2 (732a01da63, 2022-12-09)"
   sodipodi:docname="icon_outline.svg"
   inkscape:export-filename="icon_outline.png"
   inkscape:export-xdpi="96"
   inkscape:export-ydpi="96"
   xmlns:inkscape="http://www.inkscape.org/namespaces/inkscape"
   xmlns:sodipodi="http://sodipodi.sourceforge.net/DTD/sodipodi-0.dtd"
   xmlns:xlink="http://www.w3.org/1999/xlink"
   xmlns="http://www.w3.org/2000/svg"
   xmlns:svg="http://www.w3.org/2000/svg">
  <sodipodi:namedview
     id="namedview463"
     pagecolor="#ffffff"
     bordercolor="#000000"
     borderopacity="0.25"
     inkscape:showpageshadow="2"
     inkscape:pageopacity="0.0"
     inkscape:pagecheckerboard="true"
     inkscape:deskcolor="#d1d1d1"
     inkscape:document-units="px"
     showgrid="true"
     inkscape:zoom="0.70710678"
     inkscape:cx="298.39906"
     inkscape:cy="536.69404"
     inkscape:window-width="1920"
     inkscape:window-height="1026"
     inkscape:window-x="-8"
     inkscape:window-y="-8"
     inkscape:window-maximized="1"
     inkscape:current-layer="svg461">
    <inkscape:grid
       type="xygrid"
       id="grid756"
       spacingx="1"
       spacingy="1"
       empspacing="32"
       originx="0"
       originy="0" />
  </sodipodi:namedview>
  <defs
     id="defs458">
    <color-profile
       name="Agfa-:-Swop-Standard"
       xlink:href="file:///C:/Windows/system32/spool/drivers/color/RSWOP.icm"
       id="color-profile26738" />
    <linearGradient
       inkscape:collect="always"
       id="linearGradient12363">
      <stop
         style="stop-color:#0da7f2;stop-opacity:1;"
         offset="0.78615385"
         id="stop12359" />
      <stop
         style="stop-color:#39bcff;stop-opacity:1;"
         offset="0.94"
         id="stop12361" />
    </linearGradient>
    <linearGradient
       inkscape:collect="always"
       id="linearGradient9993">
      <stop
         style="stop-color:#bc1010;stop-opacity:1;"
         offset="0.69999999"
         id="stop9991" />
      <stop
         style="stop-color:#dd4641;stop-opacity:1;"
         offset="0.69999999"
         id="stop9989" />
    </linearGradient>
    <linearGradient
       inkscape:collect="always"
       id="linearGradient6115">
      <stop
         style="stop-color:#00998f;stop-opacity:1;"
         offset="0"
         id="stop6111" />
      <stop
         style="stop-color:#003399;stop-opacity:0;"
         offset="0.80000001"
         id="stop6113" />
    </linearGradient>
    <linearGradient
       inkscape:collect="always"
       id="linearGradient5146">
      <stop
         style="stop-color:#000000;stop-opacity:1;"
         offset="0.56486487"
         id="stop5144" />
      <stop
         style="stop-color:#0da7f2;stop-opacity:0.5;"
         offset="1"
         id="stop5142" />
    </linearGradient>
    <inkscape:path-effect
       effect="powerclip"
       id="path-effect25193"
       is_visible="true"
       lpeversion="1"
       inverse="true"
       flatten="false"
       hide_clip="false"
       message="如果将裁剪转换为路径后没有平面化的结果，请在&lt;b&gt;填充与描边&lt;/b&gt; 对话框中使用“填充规则偶数”。" />
    <radialGradient
       inkscape:collect="always"
       xlink:href="#linearGradient1331"
       id="radialGradient1333"
       cx="63.999901"
       cy="63.999939"
       fx="63.999897"
       fy="63.999939"
       r="51.25"
       gradientUnits="userSpaceOnUse"
       gradientTransform="matrix(10.391392,6.5937204e-6,-4.2814681e-6,9.7801174,-153.03452,-113.92768)" />
    <linearGradient
       inkscape:collect="always"
       id="linearGradient1331">
      <stop
         style="stop-color:#ffffff;stop-opacity:1;"
         offset="0.40000001"
         id="stop1327" />
      <stop
         style="stop-color:#f7f7f7;stop-opacity:1;"
         offset="1"
         id="stop1329" />
    </linearGradient>
    <clipPath
       clipPathUnits="userSpaceOnUse"
       id="clipPath25189">
      <path
         id="path25191"
         style="font-size:192px;line-height:0px;font-family:'Fredoka One';-inkscape-font-specification:'Fredoka One';font-variation-settings:normal;text-align:center;text-orientation:upright;text-anchor:middle;display:none;vector-effect:none;fill:#000000;fill-opacity:1;stroke-width:6.35022;stroke-linecap:butt;stroke-linejoin:miter;stroke-miterlimit:4;stroke-dasharray:50.8019, 50.8019;stroke-dashoffset:0;stroke-opacity:1;-inkscape-stroke:none;stop-color:#000000"
         inkscape:label="X-border"
         d="m 306.9375,168.05664 c -47.71903,5.13714 -83.43478,43.59553 -112.3509,78.68732 -24.64531,29.04191 -33.26108,73.06579 -10.42432,105.73181 32.94401,49.09278 80.01796,86.47386 119.87472,129.74088 17.60397,16.4895 41.06854,32.96957 10.26297,49.56934 -40.95416,43.96043 -86.62756,83.85051 -123.78034,131.13591 -24.7319,30.93426 -26.78757,76.46803 -1.48049,107.84958 27.70344,37.20615 63.88243,74.65299 110.9573,84.51968 50.39222,4.94465 87.1498,-38.03936 119.32476,-70.30779 30.9134,-31.318 61.7833,-62.679 92.67888,-94.01462 47.91817,46.68049 92.05819,97.51007 142.94158,140.96998 27.51327,23.44572 68.74861,32.80149 100.75967,12.6317 41.0573,-25.11499 79.81528,-61.20578 95.44047,-107.86481 12.61473,-51.74919 -31.45893,-92.89781 -64.28969,-126.12864 -32.14468,-32.8233 -64.25431,-65.68112 -96.40277,-98.50081 46.16956,-48.4987 96.05179,-93.68244 139.46608,-144.66557 25.03359,-29.23185 32.23942,-73.45439 9.25817,-106.09302 C 812.57655,222.05167 776.97342,183.58126 730.20817,169.78913 681.94024,160.03304 643.2057,199.92424 612.45858,231.10631 578.9714,265.08095 545.48702,299.05839 512,333.0332 464.93757,286.90937 421.0654,237.3193 371.48558,193.90365 352.99889,179.68267 330.96078,167.39061 306.9375,168.05664 Z" />
      <path
         id="lpe_path-effect25193"
         style="font-size:192px;line-height:0px;font-family:'Fredoka One';-inkscape-font-specification:'Fredoka One';font-variation-settings:normal;text-align:center;text-orientation:upright;text-anchor:middle;display:inline;vector-effect:none;fill:#000000;fill-opacity:1;stroke-width:6.35022;stroke-linecap:butt;stroke-linejoin:miter;stroke-miterlimit:4;stroke-dasharray:50.8019, 50.8019;stroke-dashoffset:0;stroke-opacity:1;-inkscape-stroke:none;stop-color:#000000"
         class="powerclip"
         d="M -16.014292,-14.915788 H 1040.1735 V 1040.0089 H -16.014292 Z M 306.9375,168.05664 c -47.71903,5.13714 -83.43478,43.59553 -112.3509,78.68732 -24.64531,29.04191 -33.26108,73.06579 -10.42432,105.73181 32.94401,49.09278 80.01796,86.47386 119.87472,129.74088 17.60397,16.4895 41.06854,32.96957 10.26297,49.56934 -40.95416,43.96043 -86.62756,83.85051 -123.78034,131.13591 -24.7319,30.93426 -26.78757,76.46803 -1.48049,107.84958 27.70344,37.20615 63.88243,74.65299 110.9573,84.51968 50.39222,4.94465 87.1498,-38.03936 119.32476,-70.30779 30.9134,-31.318 61.7833,-62.679 92.67888,-94.01462 47.91817,46.68049 92.05819,97.51007 142.94158,140.96998 27.51327,23.44572 68.74861,32.80149 100.75967,12.6317 41.0573,-25.11499 79.81528,-61.20578 95.44047,-107.86481 12.61473,-51.74919 -31.45893,-92.89781 -64.28969,-126.12864 -32.14468,-32.8233 -64.25431,-65.68112 -96.40277,-98.50081 46.16956,-48.4987 96.05179,-93.68244 139.46608,-144.66557 25.03359,-29.23185 32.23942,-73.45439 9.25817,-106.09302 C 812.57655,222.05167 776.97342,183.58126 730.20817,169.78913 681.94024,160.03304 643.2057,199.92424 612.45858,231.10631 578.9714,265.08095 545.48702,299.05839 512,333.0332 464.93757,286.90937 421.0654,237.3193 371.48558,193.90365 352.99889,179.68267 330.96078,167.39061 306.9375,168.05664 Z" />
    </clipPath>
    <radialGradient
       inkscape:collect="always"
       xlink:href="#linearGradient5146"
       id="radialGradient5148"
       cx="-512"
       cy="-499.84573"
       fx="-512"
       fy="-499.84573"
       r="300.46143"
       gradientTransform="matrix(1.1715314,5.8419474e-8,-5.3792274e-6,1.1715313,87.821397,73.584924)"
       gradientUnits="userSpaceOnUse"
       spreadMethod="reflect" />
    <radialGradient
       inkscape:collect="always"
       xlink:href="#linearGradient6115"
       id="radialGradient6117"
       cx="511.99945"
       cy="511.99966"
       fx="511.99945"
       fy="511.99966"
       r="322.6347"
       gradientTransform="matrix(1.6506558,1.0035236e-6,-4.7873247e-7,1.5535558,-333.12131,-283.4209)"
       gradientUnits="userSpaceOnUse" />
    <radialGradient
       inkscape:collect="always"
       xlink:href="#linearGradient9993"
       id="radialGradient9995"
       cx="511.99997"
       cy="546.88672"
       fx="511.99997"
       fy="546.88672"
       r="402.82175"
       gradientTransform="matrix(1.2710337,0,0,1.2710337,-138.76923,-183.11143)"
       gradientUnits="userSpaceOnUse" />
    <radialGradient
       inkscape:collect="always"
       xlink:href="#linearGradient12363"
       id="radialGradient12367"
       cx="512"
       cy="505.01852"
       fx="512"
       fy="505.01852"
       r="477.71268"
       gradientTransform="matrix(1.0717738,-2.5431916e-8,1.9617726e-8,1.071774,-36.748234,-29.265683)"
       gradientUnits="userSpaceOnUse" />
    <clipPath
       clipPathUnits="userSpaceOnUse"
       id="clipPath23214">
      <g
         inkscape:label="Clip"
         id="use23216"
         style="stroke-width:1.02148">
        <circle
           style="display:inline;fill:#241f31;fill-opacity:1;stroke:none;stroke-width:22.4727;stroke-linejoin:miter;stroke-dasharray:none;stroke-dashoffset:0;stroke-opacity:1;paint-order:stroke fill markers;stop-color:#000000"
           id="circle23240"
           cx="512"
           cy="512"
           r="523" />
      </g>
    </clipPath>
  </defs>
  <g
     id="g8246"
     inkscape:label="- | -"
     clip-path="url(#clipPath25189)"
     style="display:inline;stroke-width:1.02148"
     transform="matrix(0.9789675,0,0,0.9789675,10.782515,10.768643)"
     inkscape:path-effect="#path-effect25193"
     class="UnoptimicedTransforms">
    <path
       style="color:#000000;fill:url(#radialGradient12367);stroke:#000000;stroke-width:22.4727;stroke-linejoin:miter;stroke-dasharray:none;stroke-dashoffset:0;stroke-opacity:1"
       d="m 149.96094,149.96094 c -2.1937,2.1937 -4.36742,4.40715 -6.52149,6.64062 l 0.01,-0.008 C 113.74821,187.3774 87.959124,221.84111 66.820312,259.06445 43.386256,300.29965 25.778533,344.69777 14.5625,390.76172 l 124.36523,30.2832 c 8.39848,-34.49232 21.65279,-67.90428 39.18555,-98.75195 l 0.0117,-0.0195 c 15.8075,-27.83543 35.19074,-53.747 57.4375,-76.80469 l 0.01,-0.01 c 1.61767,-1.6773 3.25024,-3.34008 4.89843,-4.98828 z M 2.3671875,462.7793 c -4.1498798,42.83245 -2.87379826,86.11144 3.8125,128.63672 8.13e-4,0.005 0.00114,0.0104 0.00195,0.0156 4.148e-4,0.003 0.00154,0.005 0.00195,0.008 C 14.648132,645.36638 31.762143,697.72958 56.710931,746.2365 L 170.53711,687.69141 c -18.68476,-36.32802 -31.5773,-75.79622 -37.9043,-116.11719 l -0.004,-0.0234 c -5.00412,-31.81683 -5.9667,-64.35594 -2.85938,-96.42773 z M 844.54687,704.00977 c -15.76783,27.32286 -34.95072,52.74324 -56.89257,75.35546 l -0.0156,0.0156 c -23.85701,24.60328 -51.12798,46.04483 -80.67773,63.44726 l -0.008,0.004 c -6.25666,3.68597 -12.61634,7.19448 -19.0664,10.51758 l 58.62305,113.78711 c 8.60453,-4.43309 17.07943,-9.10938 25.41406,-14.01953 39.45236,-23.23529 75.7004,-51.72911 107.59179,-84.61524 29.3433,-30.2398 54.8553,-64.05107 75.89649,-100.51172 z M 199.02344,734.51953 94.689453,808.66992 c 1.726754,2.42961 3.469639,4.83517 5.224609,7.21485 0.0014,0.002 0.0025,0.004 0.0039,0.006 5.37e-4,7.3e-4 0.0014,10e-4 0.002,0.002 27.587878,37.41501 60.226458,70.95289 96.843748,99.55469 37.93309,29.64763 79.97249,53.86845 124.6875,71.79101 l 47.6211,-118.8125 C 335.63217,855.02241 303.9922,836.79739 275.58594,814.5957 l -0.0176,-0.0117 c -27.4284,-21.42258 -51.98971,-46.6653 -72.63084,-74.66017 l -0.004,-0.006 c -1.32589,-1.7978 -2.62994,-3.59712 -3.91015,-5.39844 z m 438.44531,140.41016 c -32.78742,11.35364 -67.22317,18.23737 -101.84766,20.35547 l -0.0176,0.002 C 497.3167,897.63922 458.5446,894.2008 421.27927,885.14263 l -30.23438,124.37687 c 49.78992,12.1027 101.25633,16.667 152.39063,13.5274 46.29853,-2.8323 92.09482,-11.989 135.91797,-27.16404 z"
       id="circle4254"
       inkscape:original-d="m 149.96094,149.96094 c -2.1937,2.1937 -4.36742,4.40715 -6.52149,6.64062 l 0.01,-0.008 C 113.74821,187.3774 87.959124,221.84111 66.820312,259.06445 43.386256,300.29965 25.778533,344.69777 14.5625,390.76172 l 124.36523,30.2832 c 8.39848,-34.49232 21.65279,-67.90428 39.18555,-98.75195 l 0.0117,-0.0195 c 15.8075,-27.83543 35.19074,-53.747 57.4375,-76.80469 l 0.01,-0.01 c 1.61767,-1.6773 3.25024,-3.34008 4.89843,-4.98828 z M 2.3671875,462.7793 c -4.1498798,42.83245 -2.87379826,86.11144 3.8125,128.63672 8.13e-4,0.005 0.00114,0.0104 0.00195,0.0156 4.148e-4,0.003 0.00154,0.005 0.00195,0.008 C 14.648132,645.36638 31.762143,697.72958 56.710931,746.2365 L 170.53711,687.69141 c -18.68476,-36.32802 -31.5773,-75.79622 -37.9043,-116.11719 l -0.004,-0.0234 c -5.00412,-31.81683 -5.9667,-64.35594 -2.85938,-96.42773 z M 844.54687,704.00977 c -15.76783,27.32286 -34.95072,52.74324 -56.89257,75.35546 l -0.0156,0.0156 c -23.85701,24.60328 -51.12798,46.04483 -80.67773,63.44726 l -0.008,0.004 c -6.25666,3.68597 -12.61634,7.19448 -19.0664,10.51758 l 58.62305,113.78711 c 8.60453,-4.43309 17.07943,-9.10938 25.41406,-14.01953 39.45236,-23.23529 75.7004,-51.72911 107.59179,-84.61524 29.3433,-30.2398 54.8553,-64.05107 75.89649,-100.51172 z M 199.02344,734.51953 94.689453,808.66992 c 1.726754,2.42961 3.469639,4.83517 5.224609,7.21485 0.0014,0.002 0.0025,0.004 0.0039,0.006 5.37e-4,7.3e-4 0.0014,10e-4 0.002,0.002 27.587878,37.41501 60.226458,70.95289 96.843748,99.55469 37.93309,29.64763 79.97249,53.86845 124.6875,71.79101 l 47.6211,-118.8125 C 335.63217,855.02241 303.9922,836.79739 275.58594,814.5957 l -0.0176,-0.0117 c -27.4284,-21.42258 -51.98971,-46.6653 -72.63084,-74.66017 l -0.004,-0.006 c -1.32589,-1.7978 -2.62994,-3.59712 -3.91015,-5.39844 z m 438.44531,140.41016 c -32.78742,11.35364 -67.22317,18.23737 -101.84766,20.35547 l -0.0176,0.002 C 497.3167,897.63922 458.5446,894.2008 421.27927,885.14263 l -30.23438,124.37687 c 49.78992,12.1027 101.25633,16.667 152.39063,13.5274 46.29853,-2.8323 92.09482,-11.989 135.91797,-27.16404 z" />
    <path
       style="display:inline;opacity:1;fill:none;stroke:url(#radialGradient5148);stroke-width:130.75;stroke-linecap:butt;stroke-linejoin:bevel;stroke-dasharray:39.225;stroke-dashoffset:0;stroke-opacity:1;paint-order:normal"
       id="path24276"
       inkscape:label="/// inner"
       sodipodi:type="arc"
       sodipodi:cx="-511.80386"
       sodipodi:cy="-511.9964"
       sodipodi:rx="288.0036"
       sodipodi:ry="288.0036"
       sodipodi:start="3.9269908"
       sodipodi:end="0.52359878"
       sodipodi:arc-type="arc"
       sodipodi:open="true"
       transform="scale(-1)"
       d="m -715.45317,-715.64569 a 288.0036,288.0036 0 0 1 378.97479,-24.83933 288.0036,288.0036 0 0 1 74.09295,372.49042" />
    <path
       style="color:#000000;fill:url(#radialGradient9995);stroke:#000000;stroke-width:22.4727;stroke-linejoin:miter;stroke-dasharray:none;stroke-dashoffset:0;stroke-opacity:1"
       d="M 557.61914,2.015625 512.31055,511.26953 455.25195,3.1601563 l -1.55078,0.1738281 -2.15039,0.2519531 -0.28906,0.035156 C 407.91166,8.8033364 365.51283,19.467284 324.78125,35.490234 c -0.008,0.0031 -0.0155,0.0067 -0.0234,0.0098 -37.72539,14.835227 -73.31492,33.996906 -106.31836,57.115234 l 293.64649,419.205072 0.20312,-0.30273 -0.0351,0.39648 0.125,-0.0371 -0.0469,-0.42383 L 796.74414,86.373047 C 764.02098,64.478649 728.96272,46.466107 692.02734,32.611328 648.69473,16.349656 603.61017,6.1073241 557.61914,2.015625 Z M 875.4043,151.16016 512.57422,511.82031 1003.9766,369.69336 c -11.43635,-39.5405 -27.5401,-77.44661 -48.09183,-113.1543 l -0.008,-0.0137 c -22.14894,-38.4917 -49.11724,-73.82137 -80.47247,-105.3652 z m 147.0332,318.88086 -509.90625,42.07226 480.73633,175.00977 c 9.69912,-26.64256 17.19242,-54.07424 22.37692,-82.11719 8.2452,-44.5678 10.5173,-89.82508 6.793,-134.96484 z m -510.25,41.82421 -0.006,0.0293 -0.004,0.0312 c 0.004,-0.0212 -0.005,0.0174 -0.004,0.0117 l 0.01,-0.004 c 0.005,-0.0208 -0.007,-0.0104 0.004,-0.0684 z m -0.0234,0.0977 c -8.1e-4,3.7e-4 -10e-4,0.002 -0.002,0.002 -10e-4,0.005 -3.6e-4,-10e-4 -0.002,0.004 l 0.008,-0.002 c -3.5e-4,-6.9e-4 -0.004,-0.003 -0.004,-0.004 z m -0.0137,0.004 c -0.002,9.5e-4 -0.009,0.003 -0.01,0.004 -0.0106,0.005 -0.0409,0.0233 -0.0996,0.0293 l 0.0352,-0.004 0.10156,-0.0117 0.004,0.002 c 4e-5,-2.3e-4 -4e-5,-0.002 0,-0.002 h 0.004 c -0.003,-9.6e-4 -10e-4,-0.001 -0.004,-0.002 5e-5,-2.4e-4 -5e-5,-0.002 0,-0.002 2.3e-4,-3e-5 -0.002,6e-5 -0.002,0 1.6e-4,-6e-5 -0.002,9e-5 -0.002,0 -6.8e-4,-10e-4 -0.005,-0.008 -0.006,-0.01 0.008,-0.004 -0.0149,0.005 -0.01,0.002 -0.002,-5.6e-4 -0.002,-0.001 -0.004,-0.002 -0.002,0.005 -1.5e-4,-10e-4 -0.002,0.004 2e-4,-1.8e-4 -0.002,6e-5 -0.002,0 -10e-4,-7.1e-4 0.0635,-0.0283 -0.0234,0.006 l 0.0195,-0.008 0.006,-0.002 c -0.002,-7.7e-4 -0.004,-0.003 -0.006,-0.004 z"
       id="path377"
       inkscape:original-d="M 557.61914,2.015625 512.31055,511.26953 455.25195,3.1601563 l -1.55078,0.1738281 -2.15039,0.2519531 -0.28906,0.035156 C 407.91166,8.8033364 365.51283,19.467284 324.78125,35.490234 c -0.008,0.0031 -0.0155,0.0067 -0.0234,0.0098 -37.72539,14.835227 -73.31492,33.996906 -106.31836,57.115234 l 293.64649,419.205072 0.20312,-0.30273 -0.0351,0.39648 0.125,-0.0371 -0.0469,-0.42383 L 796.74414,86.373047 C 764.02098,64.478649 728.96272,46.466107 692.02734,32.611328 648.69473,16.349656 603.61017,6.1073241 557.61914,2.015625 Z M 875.4043,151.16016 512.57422,511.82031 1003.9766,369.69336 c -11.43635,-39.5405 -27.5401,-77.44661 -48.09183,-113.1543 l -0.008,-0.0137 c -22.14894,-38.4917 -49.11724,-73.82137 -80.47247,-105.3652 z m 147.0332,318.88086 -509.90625,42.07226 480.73633,175.00977 c 9.69912,-26.64256 17.19242,-54.07424 22.37692,-82.11719 8.2452,-44.5678 10.5173,-89.82508 6.793,-134.96484 z m -510.25,41.82421 -0.006,0.0293 -0.004,0.0312 c 0.004,-0.0212 -0.005,0.0174 -0.004,0.0117 l 0.01,-0.004 c 0.005,-0.0208 -0.007,-0.0104 0.004,-0.0684 z m -0.0234,0.0977 c -8.1e-4,3.7e-4 -10e-4,0.002 -0.002,0.002 -10e-4,0.005 -3.6e-4,-10e-4 -0.002,0.004 l 0.008,-0.002 c -3.5e-4,-6.9e-4 -0.004,-0.003 -0.004,-0.004 z m -0.0137,0.004 c -0.002,9.5e-4 -0.009,0.003 -0.01,0.004 -0.0106,0.005 -0.0409,0.0233 -0.0996,0.0293 l 0.0352,-0.004 0.10156,-0.0117 0.004,0.002 c 4e-5,-2.3e-4 -4e-5,-0.002 0,-0.002 h 0.004 c -0.003,-9.6e-4 -10e-4,-0.001 -0.004,-0.002 5e-5,-2.4e-4 -5e-5,-0.002 0,-0.002 2.3e-4,-3e-5 -0.002,6e-5 -0.002,0 1.6e-4,-6e-5 -0.002,9e-5 -0.002,0 -6.8e-4,-10e-4 -0.005,-0.008 -0.006,-0.01 0.008,-0.004 -0.0149,0.005 -0.01,0.002 -0.002,-5.6e-4 -0.002,-0.001 -0.004,-0.002 -0.002,0.005 -1.5e-4,-10e-4 -0.002,0.004 2e-4,-1.8e-4 -0.002,6e-5 -0.002,0 -10e-4,-7.1e-4 0.0635,-0.0283 -0.0234,0.006 l 0.0195,-0.008 0.006,-0.002 c -0.002,-7.7e-4 -0.004,-0.003 -0.006,-0.004 z" />
  </g>
  <path
     d="m 653.76209,512 127.51309,130.28773 c 27.79471,27.79471 41.69207,51.72906 41.69207,71.80301 0,19.30189 -13.89736,42.85019 -41.69207,70.6449 -27.79472,27.02265 -51.34302,40.53396 -70.6449,40.53396 -19.30189,0 -42.85019,-13.89735 -70.6449,-41.69207 L 512.01387,653.74822 384.04237,783.57753 c -27.59369,27.99431 -51.34301,41.69207 -70.6449,41.69207 -18.52981,0 -42.07811,-13.51131 -70.6449,-40.53396 -27.79471,-27.79471 -41.69207,-51.34301 -41.69207,-70.6449 0,-20.07395 13.89736,-44.0083 41.69207,-71.80301 L 370.26566,512 242.75257,382.87039 c -27.79471,-27.79472 -41.69207,-51.34302 -41.69207,-70.6449 0,-20.07396 13.89736,-44.0083 41.69207,-71.80301 28.56679,-27.79472 52.11509,-41.69208 70.6449,-41.69208 19.30189,0 42.85019,13.89736 70.6449,41.69208 l 127.9715,129.8293 127.97151,-129.8293 c 27.79471,-27.79472 51.34301,-41.69208 70.6449,-41.69208 19.30188,0 42.85018,13.89736 70.6449,41.69208 27.79471,27.79471 41.69207,51.72905 41.69207,71.80301 0,19.30188 -13.89736,42.85018 -41.69207,70.6449 z"
     style="font-size:192px;line-height:0px;font-family:'Fredoka One';-inkscape-font-specification:'Fredoka One';font-variation-settings:normal;text-align:center;text-orientation:upright;text-anchor:middle;display:inline;fill:url(#radialGradient1333);fill-opacity:1;stroke:url(#radialGradient6117);stroke-width:16;stroke-linecap:butt;stroke-linejoin:miter;stroke-miterlimit:4;stroke-dasharray:none;stroke-dashoffset:0;stroke-opacity:1;stop-color:#000000"
     id="path21859"
     sodipodi:nodetypes="ccscsccsscscccscscccssscc"
     inkscape:label="X" />
  <path
     id="path12108"
     style="font-size:192px;line-height:0px;font-family:'Fredoka One';-inkscape-font-specification:'Fredoka One';font-variation-settings:normal;text-align:center;text-orientation:upright;text-anchor:middle;display:inline;fill:none;fill-opacity:1;stroke:#000000;stroke-width:20;stroke-linecap:butt;stroke-linejoin:miter;stroke-miterlimit:4;stroke-dasharray:none;stroke-dashoffset:0;stroke-opacity:1;stop-color:#000000"
     inkscape:label="X outline"
     d="m 709.39006,181.1262 c -11.72732,0.26979 -23.11237,4.04638 -33.47587,9.36419 -15.31497,7.93326 -28.81704,18.89866 -41.33675,30.66449 -11.72517,11.22955 -22.88952,23.02429 -34.35889,34.51172 -29.40172,29.82625 -58.80344,59.65248 -88.20516,89.47872 -39.55057,-40.10603 -79.06698,-80.24654 -118.68543,-120.28509 -12.82876,-12.43159 -26.6012,-24.12967 -42.28888,-32.8155 -10.30421,-5.66149 -21.61201,-9.92333 -33.42036,-10.76557 -11.07315,-0.85189 -22.15074,1.8591 -32.24037,6.29391 -14.41269,6.3595 -27.24178,15.75122 -39.20626,25.89113 -15.39273,13.17405 -29.62742,27.8095 -41.58223,44.19782 -8.03719,11.11697 -14.94505,23.28066 -18.61373,36.57411 -2.82915,10.24929 -3.41249,21.20954 -0.98571,31.60142 2.79937,12.67575 8.95627,24.33099 16.14059,35.04006 9.68277,14.36002 21.6569,26.99731 33.84703,39.21153 36.85882,37.32529 73.71764,74.65058 110.57646,111.97588 -40.66324,41.5592 -81.36125,83.08495 -121.96301,124.70395 -11.93043,12.70758 -22.98447,26.47391 -30.90102,42.07957 -5.34836,10.67946 -9.07737,22.39916 -9.23453,34.42374 -0.15147,11.69024 3.28249,23.1631 8.38893,33.58813 7.52178,15.30286 18.27756,28.731 29.71536,41.26961 10.16134,10.97833 21.36115,20.97803 33.2468,30.05333 9.70966,7.32781 20.06219,13.93189 31.28666,18.69237 9.68735,4.03801 20.19867,6.56023 30.74602,5.89832 12.59581,-0.73584 24.65421,-5.33389 35.56393,-11.47559 12.89181,-7.25975 24.47924,-16.61537 35.25904,-26.6965 10.42159,-9.80294 20.20586,-20.24927 30.32178,-30.3615 31.34297,-31.79526 62.68595,-63.59051 94.02893,-95.38576 39.57233,40.12826 79.1081,80.29311 118.75248,120.34996 12.82945,12.42323 26.60201,24.11177 42.28782,32.78825 10.31875,5.65487 21.63908,9.90817 33.45768,10.74354 12.35719,0.86197 24.68487,-2.36465 35.8184,-7.56585 14.43243,-6.72114 27.27411,-16.36587 39.24634,-26.76104 13.76246,-12.05592 26.41754,-25.42005 37.36745,-40.08946 7.97418,-10.84934 14.94462,-22.66287 18.8127,-35.63352 2.90913,-9.77141 3.68428,-20.23912 1.73091,-30.27317 -2.30769,-12.73118 -8.02296,-24.57935 -14.93832,-35.41749 -9.20291,-14.38577 -20.77191,-27.07042 -32.75107,-39.164 -37.79125,-38.57499 -75.54781,-77.18528 -113.32359,-115.77646 40.47199,-41.00287 80.9831,-81.9671 121.38056,-123.04221 11.85868,-12.56896 22.96312,-26.08518 31.03224,-41.44303 5.38317,-10.34544 9.2659,-21.70387 9.65795,-33.4421 0.37997,-12.07965 -2.94193,-24.01727 -8.10085,-34.85628 -7.22862,-15.22615 -17.69217,-28.64379 -28.96062,-41.07447 -11.72614,-12.80541 -24.40919,-24.79035 -38.30918,-35.21938 -10.31689,-7.62898 -21.51716,-14.28432 -33.73834,-18.35274 -7.10479,-2.30401 -14.56167,-3.63913 -22.04589,-3.49904 z" />
</svg>
