<?xml version="1.0" encoding="UTF-8" standalone="no"?>
<!-- Created with Inkscape (http://www.inkscape.org/) -->

<svg
   width="1024.1879"
   height="1024.0082"
   viewBox="0 0 1024.1879 1024.0082"
   version="1.1"
   id="svg461"
   sodipodi:docname="icon_outline.svg"
   inkscape:export-filename="..\..\..\..\Users\LSDog\Desktop\icon_outline_lite_out_circle.png"
   inkscape:export-xdpi="192"
   inkscape:export-ydpi="192"
   inkscape:version="1.2.2 (732a01da63, 2022-12-09)"
   xmlns:inkscape="http://www.inkscape.org/namespaces/inkscape"
   xmlns:sodipodi="http://sodipodi.sourceforge.net/DTD/sodipodi-0.dtd"
   xmlns:xlink="http://www.w3.org/1999/xlink"
   xmlns="http://www.w3.org/2000/svg"
   xmlns:svg="http://www.w3.org/2000/svg">
  <sodipodi:namedview
     id="namedview42"
     pagecolor="#ffffff"
     bordercolor="#000000"
     borderopacity="0.25"
     inkscape:showpageshadow="2"
     inkscape:pageopacity="0.0"
     inkscape:pagecheckerboard="0"
     inkscape:deskcolor="#d1d1d1"
     showgrid="false"
     inkscape:zoom="6.6093222"
     inkscape:cx="490.44363"
     inkscape:cy="-3.555584"
     inkscape:window-width="1920"
     inkscape:window-height="1026"
     inkscape:window-x="-8"
     inkscape:window-y="-8"
     inkscape:window-maximized="1"
     inkscape:current-layer="svg461" />
  <defs
     id="defs458">
    <pattern
       xlink:href="#Packedcircles"
       id="pattern4758"
       patternTransform="matrix(9.7727053,0,0,9.7727053,11.637494,3.6374856)" />
    <pattern
       patternUnits="userSpaceOnUse"
       width="1"
       height="1.73205080756"
       patternTransform="translate(0,0) scale(10,10)"
       id="Packedcircles">
      <circle
         style="fill:black;stroke:none"
         cx="0"
         cy="0.5"
         r="0.5"
         id="circle2845" />
      <circle
         style="fill:black;stroke:none"
         cx="1"
         cy="0.5"
         r="0.5"
         id="circle2847" />
      <circle
         style="fill:black;stroke:none"
         cx="0.5"
         cy="1.36602540378"
         r="0.5"
         id="circle2849" />
      <circle
         style="fill:black;stroke:none"
         cx="0.5"
         cy="-0.366025403784"
         r="0.5"
         id="circle2851" />
    </pattern>
    <color-profile
       name="Agfa-:-Swop-Standard"
       xlink:href="file:///C:/Windows/system32/spool/drivers/color/RSWOP.icm"
       id="color-profile2701" />
    <linearGradient
       id="linearGradient12363">
      <stop
         style="stop-color:#0da7f2;stop-opacity:1;"
         offset="0.78615385"
         id="stop12359" />
      <stop
         style="stop-color:#39bcff;stop-opacity:1;"
         offset="0.94"
         id="stop12361" />
    </linearGradient>
    <linearGradient
       id="linearGradient9993">
      <stop
         style="stop-color:#bc1010;stop-opacity:1;"
         offset="0.69999999"
         id="stop9991" />
      <stop
         style="stop-color:#dd4641;stop-opacity:1;"
         offset="0.69999999"
         id="stop9989" />
    </linearGradient>
    <linearGradient
       id="linearGradient6115">
      <stop
         style="stop-color:#00998f;stop-opacity:1;"
         offset="0"
         id="stop6111" />
      <stop
         style="stop-color:#003399;stop-opacity:0;"
         offset="0.80000001"
         id="stop6113" />
    </linearGradient>
    <linearGradient
       id="linearGradient5146">
      <stop
         style="stop-color:#000000;stop-opacity:1;"
         offset="0.60000002"
         id="stop5144" />
      <stop
         style="stop-color:#21b1f8;stop-opacity:1;"
         offset="1"
         id="stop5142" />
    </linearGradient>
    <radialGradient
       xlink:href="#linearGradient1331"
       id="radialGradient1333"
       cx="63.999901"
       cy="63.999939"
       fx="63.999897"
       fy="63.999939"
       r="51.25"
       gradientUnits="userSpaceOnUse"
       gradientTransform="matrix(10.387225,6.5910718e-6,-4.2797509e-6,9.7761893,-152.73202,-113.63078)" />
    <linearGradient
       id="linearGradient1331">
      <stop
         style="stop-color:#ffffff;stop-opacity:1;"
         offset="0.40000001"
         id="stop1327" />
      <stop
         style="stop-color:#f7f7f7;stop-opacity:1;"
         offset="1"
         id="stop1329" />
    </linearGradient>
    <clipPath
       clipPathUnits="userSpaceOnUse"
       id="clipPath25189">
      <path
         id="path25191"
         style="font-size:192px;line-height:0px;font-family:'Fredoka One';-inkscape-font-specification:'Fredoka One';font-variation-settings:normal;text-align:center;text-orientation:upright;text-anchor:middle;display:none;vector-effect:none;fill:#000000;fill-opacity:1;stroke-width:6.35022;stroke-linecap:butt;stroke-linejoin:miter;stroke-miterlimit:4;stroke-dasharray:50.8019, 50.8019;stroke-dashoffset:0;stroke-opacity:1;-inkscape-stroke:none;stop-color:#000000"
         d="m 306.9375,168.05664 c -47.71903,5.13714 -83.43478,43.59553 -112.3509,78.68732 -24.64531,29.04191 -33.26108,73.06579 -10.42432,105.73181 32.94401,49.09278 80.01796,86.47386 119.87472,129.74088 17.60397,16.4895 41.06854,32.96957 10.26297,49.56934 -40.95416,43.96043 -86.62756,83.85051 -123.78034,131.13591 -24.7319,30.93426 -26.78757,76.46803 -1.48049,107.84958 27.70344,37.20615 63.88243,74.65299 110.9573,84.51968 50.39222,4.94465 87.1498,-38.03936 119.32476,-70.30779 30.9134,-31.318 61.7833,-62.679 92.67888,-94.01462 47.91817,46.68049 92.05819,97.51007 142.94158,140.96998 27.51327,23.44572 68.74861,32.80149 100.75967,12.6317 41.0573,-25.11499 79.81528,-61.20578 95.44047,-107.86481 12.61473,-51.74919 -31.45893,-92.89781 -64.28969,-126.12864 -32.14468,-32.8233 -64.25431,-65.68112 -96.40277,-98.50081 46.16956,-48.4987 96.05179,-93.68244 139.46608,-144.66557 25.03359,-29.23185 32.23942,-73.45439 9.25817,-106.09302 C 812.57655,222.05167 776.97342,183.58126 730.20817,169.78913 681.94024,160.03304 643.2057,199.92424 612.45858,231.10631 578.9714,265.08095 545.48702,299.05839 512,333.0332 464.93757,286.90937 421.0654,237.3193 371.48558,193.90365 352.99889,179.68267 330.96078,167.39061 306.9375,168.05664 Z" />
      <path
         id="lpe_path-effect25193"
         style="font-size:192px;line-height:0px;font-family:'Fredoka One';-inkscape-font-specification:'Fredoka One';font-variation-settings:normal;text-align:center;text-orientation:upright;text-anchor:middle;display:inline;vector-effect:none;fill:#000000;fill-opacity:1;stroke-width:6.35022;stroke-linecap:butt;stroke-linejoin:miter;stroke-miterlimit:4;stroke-dasharray:50.8019, 50.8019;stroke-dashoffset:0;stroke-opacity:1;-inkscape-stroke:none;stop-color:#000000"
         class="powerclip"
         d="M -100.01417,-100 H 1123.9858 V 1124 H -100.01417 Z M 306.9375,168.05664 c -47.71903,5.13714 -83.43478,43.59553 -112.3509,78.68732 -24.64531,29.04191 -33.26108,73.06579 -10.42432,105.73181 32.94401,49.09278 80.01796,86.47386 119.87472,129.74088 17.60397,16.4895 41.06854,32.96957 10.26297,49.56934 -40.95416,43.96043 -86.62756,83.85051 -123.78034,131.13591 -24.7319,30.93426 -26.78757,76.46803 -1.48049,107.84958 27.70344,37.20615 63.88243,74.65299 110.9573,84.51968 50.39222,4.94465 87.1498,-38.03936 119.32476,-70.30779 30.9134,-31.318 61.7833,-62.679 92.67888,-94.01462 47.91817,46.68049 92.05819,97.51007 142.94158,140.96998 27.51327,23.44572 68.74861,32.80149 100.75967,12.6317 41.0573,-25.11499 79.81528,-61.20578 95.44047,-107.86481 12.61473,-51.74919 -31.45893,-92.89781 -64.28969,-126.12864 -32.14468,-32.8233 -64.25431,-65.68112 -96.40277,-98.50081 46.16956,-48.4987 96.05179,-93.68244 139.46608,-144.66557 25.03359,-29.23185 32.23942,-73.45439 9.25817,-106.09302 C 812.57655,222.05167 776.97342,183.58126 730.20817,169.78913 681.94024,160.03304 643.2057,199.92424 612.45858,231.10631 578.9714,265.08095 545.48702,299.05839 512,333.0332 464.93757,286.90937 421.0654,237.3193 371.48558,193.90365 352.99889,179.68267 330.96078,167.39061 306.9375,168.05664 Z" />
    </clipPath>
    <radialGradient
       xlink:href="#linearGradient5146"
       id="radialGradient5148"
       cx="-512"
       cy="-499.84576"
       fx="-512"
       fy="-499.84579"
       r="300.46143"
       gradientTransform="matrix(1.1715314,-5.3994391e-6,0,1.1880602,87.824088,81.844035)"
       gradientUnits="userSpaceOnUse"
       spreadMethod="reflect" />
    <radialGradient
       xlink:href="#linearGradient6115"
       id="radialGradient6117"
       cx="511.99945"
       cy="511.99966"
       fx="511.99945"
       fy="511.99966"
       r="322.6347"
       gradientTransform="matrix(1.6499937,1.0031205e-6,-4.7854047e-7,1.5529318,-332.74658,-283.05592)"
       gradientUnits="userSpaceOnUse" />
    <radialGradient
       xlink:href="#linearGradient9993"
       id="radialGradient9995"
       cx="511.99997"
       cy="546.88672"
       fx="511.99997"
       fy="546.88672"
       r="402.82175"
       gradientTransform="matrix(1.2710337,0,0,1.2710337,-138.76923,-183.11143)"
       gradientUnits="userSpaceOnUse" />
    <radialGradient
       xlink:href="#linearGradient12363"
       id="radialGradient12367"
       cx="512"
       cy="505.01852"
       fx="512"
       fy="505.01852"
       r="477.71268"
       gradientTransform="matrix(1.0717738,-2.5431916e-8,1.9617726e-8,1.071774,-36.748234,-29.265683)"
       gradientUnits="userSpaceOnUse" />
  </defs>
  <circle
     style="display:none;fill:none;stroke:#8ff0a4;stroke-width:0.0999997;stroke-dasharray:none;stop-color:#000000"
     id="path1453"
     cx="512"
     cy="512"
     r="511.95001"
     inkscape:label="LocationOutLine" />
  <g
     id="g8246"
     clip-path="url(#clipPath25189)"
     style="display:inline;stroke-width:1.0219"
     class="UnoptimicedTransforms"
     transform="matrix(0.97857486,0,0,0.97857424,11.019316,11.015442)">
    <path
       style="color:#000000;fill:url(#radialGradient12367);stroke:#000000;stroke-width:22.4817;stroke-linecap:butt;stroke-linejoin:miter;stroke-dasharray:none;stroke-opacity:1"
       d="m 149.96094,149.96094 c -2.1937,2.1937 -4.36742,4.40715 -6.52149,6.64062 l 0.01,-0.008 C 113.74821,187.3774 87.959124,221.84111 66.820312,259.06445 43.386257,300.29965 25.778533,344.69777 14.5625,390.76172 l 124.36523,30.2832 c 8.39848,-34.49232 21.65279,-67.90428 39.18555,-98.75195 l 0.0117,-0.0195 c 15.8075,-27.83543 35.19074,-53.747 57.4375,-76.80469 l 0.01,-0.01 c 1.61767,-1.6773 3.25024,-3.34008 4.89843,-4.98828 z M 2.3671875,462.7793 c -4.149881,42.83246 -2.87379827,86.11144 3.8125,128.63672 8.13e-4,0.005 0.00114,0.0104 0.00195,0.0156 4.148e-4,0.003 0.00154,0.005 0.00195,0.008 C 14.648132,645.36638 31.762142,697.72958 56.710931,746.2365 L 170.53711,687.69141 c -18.68476,-36.32802 -31.5773,-75.79622 -37.9043,-116.11719 l -0.004,-0.0234 c -5.00412,-31.81683 -5.9667,-64.35593 -2.85938,-96.42773 z M 844.54687,704.00977 c -15.76783,27.32286 -34.95072,52.74324 -56.89257,75.35546 l -0.0156,0.0156 c -23.85701,24.60328 -51.12798,46.04483 -80.67773,63.44726 l -0.008,0.004 c -6.25666,3.68597 -12.61634,7.19448 -19.0664,10.51758 l 58.62305,113.78711 c 8.60453,-4.43309 17.07943,-9.10938 25.41406,-14.01953 39.45236,-23.23529 75.7004,-51.72911 107.59179,-84.61524 29.3433,-30.2398 54.8553,-64.05107 75.89649,-100.51172 z M 199.02344,734.51953 94.689453,808.66992 c 1.726755,2.42961 3.469638,4.83516 5.224609,7.21485 0.0014,0.002 0.0025,0.004 0.0039,0.006 5.37e-4,7.3e-4 0.0014,10e-4 0.002,0.002 27.587878,37.41501 60.226458,70.95289 96.843748,99.55469 37.93309,29.64762 79.97249,53.86846 124.6875,71.79101 l 47.6211,-118.8125 C 335.63217,855.02241 303.9922,836.79739 275.58594,814.5957 l -0.0176,-0.0117 c -27.4284,-21.42258 -51.98971,-46.6653 -72.63084,-74.66017 l -0.004,-0.006 c -1.32589,-1.7978 -2.62994,-3.59712 -3.91015,-5.39844 z m 438.44531,140.41016 c -32.78742,11.35364 -67.22318,18.23737 -101.84766,20.35547 l -0.0176,0.002 C 497.3167,897.63922 458.5446,894.2008 421.27927,885.14263 l -30.23438,124.37687 c 49.78993,12.1027 101.25633,16.667 152.39063,13.5274 46.29853,-2.8323 92.09482,-11.989 135.91797,-27.16404 z"
       id="circle4254" />
    <path
       style="color:#000000;fill:url(#radialGradient5148);stroke:none;stroke-width:8.17515;stroke-linejoin:miter;stroke-dasharray:none;stroke-dashoffset:0;stroke-opacity:1"
       d="m -506.7207,-863.9668 -1.79688,127.98828 c 9.95406,0.13974 19.90792,0.94357 29.7461,2.4043 l 18.79882,-126.61133 c -15.48401,-2.29899 -31.10492,-3.56165 -46.74804,-3.78125 z m -46.77735,2.44336 c -15.53528,1.84822 -30.93742,4.73121 -46.09179,8.62696 l 31.86914,123.96875 c 9.63931,-2.47799 19.4585,-4.31615 29.34375,-5.49219 z m 139.35157,11.29688 -35.45704,122.99219 c 9.54127,2.75063 18.90883,6.14704 27.99415,10.15039 l 51.61328,-117.13282 c -14.341,-6.31921 -29.09368,-11.66909 -44.15039,-16.00976 z m -229.98438,12.0039 c -14.51445,5.88031 -28.63098,12.73096 -42.24219,20.50977 l 63.51172,111.13086 c 8.61502,-4.92348 17.58092,-9.27569 26.79297,-13.00781 z m 315.69922,25.74024 -66.73633,109.22656 c 8.48893,5.18661 16.66043,10.95831 24.42383,17.24805 l 80.57617,-99.45508 c -12.12724,-9.82522 -24.90753,-18.85911 -38.26367,-27.01953 z m -397.03125,20.71484 c -12.43879,9.51134 -24.20989,19.83232 -35.24609,30.86914 l 90.51171,90.50586 c 7.06512,-7.06551 14.58684,-13.65645 22.48438,-19.69531 z m 469.66797,38.14063 -93.01563,87.93164 c 6.82042,7.21473 13.16587,14.90086 18.96289,22.96875 l 103.94727,-74.68946 c -9.14093,-12.72169 -19.12864,-24.82261 -29.89453,-36.21093 z m 54.66992,76.0664 -112.98437,60.15625 c 4.67217,8.7753 8.7659,17.88174 12.23437,27.21485 l 119.98242,-44.58985 c -5.44935,-14.66335 -11.87351,-28.9597 -19.23242,-42.78125 z m 32.60352,87.69727 -124.83008,28.31055 c 2.20375,9.71703 3.76378,19.58646 4.6582,29.49804 l 127.48047,-11.5039 c -1.40636,-15.5847 -3.85028,-31.05594 -7.30859,-46.30469 z m -119.4668,87.67773 c -0.42556,9.93219 -1.51842,19.84554 -3.26563,29.6211 l 126.00391,22.51953 c 2.75693,-15.42488 4.47424,-31.01611 5.14453,-46.66016 z m -10.45703,58.54688 c -3.03986,9.4649 -6.7179,18.74017 -10.99414,27.71875 l 115.5625,55.03906 c 6.73155,-14.13383 12.51249,-28.70642 17.30078,-43.61523 z"
       id="path24276"
       transform="scale(-1)" />
    <circle
       style="display:none;opacity:1;fill:none;fill-opacity:1;stroke:url(#pattern4758);stroke-width:32.7007;stroke-opacity:1;stop-color:#000000"
       id="path4504"
       cx="512.00018"
       cy="504"
       r="343.96613" />
    <path
       style="color:#000000;fill:url(#radialGradient9995);stroke:#000000;stroke-width:22.4817;stroke-dasharray:none;stroke-dashoffset:0;stroke-opacity:1"
       d="M 557.61914,2.015625 512.31055,511.26953 455.25195,3.1601563 l -1.55078,0.1738281 -2.15039,0.2519531 -0.28906,0.035156 C 407.91166,8.8033363 365.51283,19.467284 324.78125,35.490234 c -0.008,0.0031 -0.0155,0.0067 -0.0234,0.0098 -37.72539,14.835227 -73.31492,33.996905 -106.31836,57.115234 l 293.64649,419.205072 0.20312,-0.30273 -0.0351,0.39648 0.125,-0.0371 -0.0469,-0.42383 L 796.74414,86.373047 C 764.02098,64.478649 728.96272,46.466107 692.02734,32.611328 648.69473,16.349656 603.61017,6.1073242 557.61914,2.015625 Z M 875.4043,151.16016 512.57422,511.82031 1003.9766,369.69336 c -11.43635,-39.5405 -27.5401,-77.44661 -48.09183,-113.1543 l -0.008,-0.0137 c -22.14894,-38.4917 -49.11723,-73.82137 -80.47247,-105.3652 z m 147.0332,318.88086 -509.90625,42.07226 480.73633,175.00977 c 9.69912,-26.64256 17.19242,-54.07424 22.37692,-82.11719 8.2452,-44.56779 10.5173,-89.82508 6.793,-134.96484 z m -510.25,41.82421 -0.006,0.0293 -0.004,0.0312 c 0.004,-0.0212 -0.005,0.0174 -0.004,0.0117 l 0.01,-0.004 c 0.005,-0.0208 -0.007,-0.0104 0.004,-0.0684 z m -0.0234,0.0977 c -8.1e-4,3.7e-4 -10e-4,0.002 -0.002,0.002 -10e-4,0.005 -3.6e-4,-10e-4 -0.002,0.004 l 0.008,-0.002 c -3.5e-4,-6.9e-4 -0.004,-0.003 -0.004,-0.004 z m -0.0137,0.004 c -0.002,9.5e-4 -0.009,0.003 -0.01,0.004 -0.0106,0.005 -0.0409,0.0233 -0.0996,0.0293 l 0.0352,-0.004 0.10156,-0.0117 0.004,0.002 c 4e-5,-2.3e-4 -4e-5,-0.002 0,-0.002 h 0.004 c -0.003,-9.6e-4 -10e-4,-0.001 -0.004,-0.002 5e-5,-2.4e-4 -5e-5,-0.002 0,-0.002 2.3e-4,-3e-5 -0.002,6e-5 -0.002,0 1.6e-4,-6e-5 -0.002,9e-5 -0.002,0 -6.8e-4,-10e-4 -0.005,-0.008 -0.006,-0.01 0.008,-0.004 -0.0149,0.005 -0.01,0.002 -0.002,-5.6e-4 -0.002,-0.001 -0.004,-0.002 -0.002,0.005 -1.5e-4,-10e-4 -0.002,0.004 2e-4,-1.8e-4 -0.002,6e-5 -0.002,0 -10e-4,-7.1e-4 0.0635,-0.0283 -0.0234,0.006 l 0.0195,-0.008 0.006,-0.002 c -0.002,-7.7e-4 -0.004,-0.003 -0.006,-0.004 z"
       id="path377" />
  </g>
  <path
     id="path21859"
     style="font-size:192px;line-height:0px;font-family:'Fredoka One';-inkscape-font-specification:'Fredoka One';font-variation-settings:normal;text-align:center;text-orientation:upright;text-anchor:middle;display:inline;fill:none;fill-opacity:1;stroke:#000000;stroke-width:20;stroke-linecap:butt;stroke-linejoin:miter;stroke-miterlimit:4;stroke-dasharray:none;stroke-dashoffset:0;stroke-opacity:1;stop-color:#000000"
     d="m 709.34476,181.30457 c -11.43646,0.27251 -22.5624,3.86333 -32.70414,8.99546 -12.74323,6.43865 -24.22844,15.09887 -34.92241,24.4977 -9.93331,8.75658 -19.1014,18.32474 -28.40671,27.73186 -11.94026,12.16965 -23.94895,24.27182 -35.90376,36.42719 -21.78619,22.10098 -43.57238,44.20195 -65.35858,66.30293 C 472.31717,304.9711 432.62535,264.64353 392.80844,224.44089 380.07871,212.17988 366.43059,200.6302 350.88049,192.08772 339.94682,186.0977 327.83371,181.7161 315.26838,181.33096 c -11.32404,-0.34017 -22.48252,2.88476 -32.62587,7.73513 -14.27265,6.80567 -26.97387,16.44184 -38.86651,26.76714 -14.97319,13.0966 -28.80977,27.60483 -40.34892,43.84101 -7.7881,11.06093 -14.38963,23.18619 -17.72117,36.37198 -2.52512,10.08226 -2.85105,20.79009 -0.31757,30.90518 2.8732,12.12614 8.74693,23.32091 15.64201,33.61869 9.68873,14.50846 21.75515,27.21105 34.01764,39.5452 36.87821,37.3269 73.7398,74.65792 110.60905,111.99516 -40.83942,41.74229 -81.72224,83.44278 -122.48084,125.26369 -11.72787,12.5751 -22.60023,26.17917 -30.38726,41.58665 -5.34037,10.71875 -9.06443,22.48025 -9.16513,34.53985 -0.10184,11.29284 3.16127,22.3732 7.99726,32.49486 6.59387,13.7083 15.84661,25.94269 25.85069,37.32661 10.67884,12.23919 22.68386,23.28362 35.49119,33.25727 10.4096,8.02677 21.528,15.30523 33.69654,20.37887 10.05799,4.16783 21.04187,6.6106 31.96166,5.60356 12.0507,-1.02917 23.55016,-5.51456 34.00585,-11.43203 14.98401,-8.44604 28.16644,-19.70077 40.4202,-31.68546 9.3647,-9.19641 18.42318,-18.69804 27.69511,-27.98765 30.43562,-30.87514 60.87124,-61.7503 91.30685,-92.62546 39.75375,40.3104 79.46466,80.66374 119.30965,120.8837 12.72953,12.25163 26.37459,23.79613 41.92609,32.3243 9.83544,5.37105 20.57326,9.44464 31.7958,10.49486 8.52616,0.7971 17.15337,-0.36893 25.31852,-2.86921 10.92595,-3.35299 21.05912,-8.88906 30.49635,-15.26551 10.19529,-6.95376 19.66462,-14.9273 28.64326,-23.38112 11.31073,-10.71877 21.79213,-22.35163 30.92323,-34.9892 7.3363,-10.28871 13.69672,-21.46339 17.26857,-33.64633 2.93596,-9.98034 3.62312,-20.67771 1.48995,-30.8874 -2.45024,-12.62451 -8.2222,-24.3441 -15.13511,-35.09267 -9.30688,-14.42045 -21.00595,-27.08886 -33.03018,-39.26305 -37.55419,-38.3297 -75.07838,-76.68888 -112.61208,-115.0387 40.64983,-41.18577 81.34448,-82.3281 121.90261,-123.60388 11.91156,-12.70124 23.0634,-26.36926 31.01989,-41.94268 5.13301,-10.13165 8.77677,-21.22776 9.09279,-32.65677 0.32163,-12.77506 -3.47006,-25.33554 -9.1703,-36.66213 -7.08906,-14.14376 -16.8982,-26.72303 -27.47348,-38.41324 -12.09769,-13.27265 -25.22105,-25.67523 -39.66638,-36.37306 -10.83398,-7.88713 -22.64597,-14.72813 -35.57611,-18.50126 -6.24361,-1.76872 -12.72972,-2.75777 -19.22747,-2.64329 z" />
  <path
     d="m 653.74102,512.04547 127.46195,130.23538 c 27.78356,27.78354 41.67535,51.70828 41.67535,71.77417 0,19.29413 -13.89179,42.83298 -41.67535,70.61652 -27.78358,27.01179 -51.32243,40.51768 -70.61658,40.51768 -19.29414,0 -42.83299,-13.89177 -70.61656,-41.67533 L 512.04965,653.73674 384.12947,783.51389 c -27.58263,27.98307 -51.32241,41.67533 -70.61657,41.67533 -18.52237,0 -42.06123,-13.50589 -70.61656,-40.51768 -27.78357,-27.78354 -41.67536,-51.32239 -41.67536,-70.61652 0,-20.06589 13.89179,-43.99063 41.67536,-71.77417 L 370.35828,512.04547 242.89634,382.96772 c -27.78357,-27.78356 -41.67536,-51.3224 -41.67536,-70.61652 0,-20.0659 13.89179,-43.99062 41.67536,-71.77417 28.55533,-27.78356 52.09419,-41.67533 70.61656,-41.67533 19.29416,0 42.83301,13.89177 70.61657,41.67533 L 512.04965,370.35418 639.96983,240.57703 c 27.78357,-27.78356 51.32242,-41.67533 70.61656,-41.67533 19.29415,0 42.833,13.89177 70.61658,41.67533 27.78356,27.78355 41.67535,51.70827 41.67535,71.77417 0,19.29412 -13.89179,42.83296 -41.67535,70.61652 z"
     style="font-size:192px;line-height:0px;font-family:'Fredoka One';-inkscape-font-specification:'Fredoka One';font-variation-settings:normal;text-align:center;text-orientation:upright;text-anchor:middle;display:inline;fill:url(#radialGradient1333);fill-opacity:1;stroke:url(#radialGradient6117);stroke-width:16;stroke-linecap:butt;stroke-linejoin:miter;stroke-miterlimit:4;stroke-dasharray:none;stroke-dashoffset:0;stroke-opacity:1;stop-color:#000000"
     id="path3764" />
</svg>
