<?xml version="1.0" encoding="UTF-8" standalone="no"?>
<!-- Created with Inkscape (http://www.inkscape.org/) -->

<svg
   width="1152"
   height="189.82986"
   viewBox="0 0 1152 189.82986"
   version="1.1"
   id="svg5"
   xml:space="preserve"
   xmlns:xlink="http://www.w3.org/1999/xlink"
   xmlns="http://www.w3.org/2000/svg"
   xmlns:svg="http://www.w3.org/2000/svg"><defs
     id="defs2"><linearGradient
       id="linearGradient622"><stop
         style="stop-color:#ffffff;stop-opacity:0.94999999;"
         offset="0.28648648"
         id="stop618" /><stop
         style="stop-color:#f6f5f4;stop-opacity:0;"
         offset="1"
         id="stop620" /></linearGradient><linearGradient
       id="linearGradient3070"><stop
         style="stop-color:#ffffff;stop-opacity:1;"
         offset="0"
         id="stop3068" /></linearGradient><linearGradient
       id="linearGradient3150"><stop
         style="stop-color:#000000;stop-opacity:1;"
         offset="0"
         id="stop3146" /><stop
         style="stop-color:#000000;stop-opacity:0;"
         offset="1"
         id="stop3148" /></linearGradient><radialGradient
       xlink:href="#linearGradient3150"
       id="radialGradient3152"
       cx="618.23346"
       cy="552.04376"
       fx="476.31448"
       fy="538.59259"
       r="597"
       gradientTransform="matrix(0.99978444,0,0,0.19104093,1.1239458,449.33524)"
       gradientUnits="userSpaceOnUse"
       spreadMethod="pad" /><linearGradient
       xlink:href="#linearGradient622"
       id="linearGradient616"
       gradientUnits="userSpaceOnUse"
       gradientTransform="matrix(0.99978444,0,0,0.91296913,1.1239458,57.27313)"
       x1="-22"
       y1="543.07635"
       x2="1215.2334"
       y2="544.95276"
       spreadMethod="pad" /><clipPath
       clipPathUnits="userSpaceOnUse"
       id="clipPath3021"><path
         id="path3023"
         style="display:inline;mix-blend-mode:normal;fill:#ffffff;fill-opacity:0.96;stroke-width:38.0114"
         d="m 6.2722778,457.88903 8.2584572,-0.44503 12.637633,2.02497 18.764958,0.79626 12.748772,0.0304 12.257161,-1.98676 14.208143,-2.1607 17.342338,1.19195 13.64504,0.11799 16.46732,-0.45572 13.8251,1.79368 16.34076,1.39353 12.88077,2.63303 15.76049,1.45722 12.1233,2.02992 17.54069,-3.53347 13.77008,-0.46191 15.05568,-0.74922 12.74102,-0.86631 11.1386,-0.71886 17.93021,0.33573 16.51323,2.85948 14.45297,-1.04919 15.88198,-0.10641 18.2004,-0.58755 8.80418,0.496 22.55954,-1.12154 7.50118,-0.3599 16.27928,-2.35735 12.37616,-0.04 14.61838,0.16976 16.23963,-0.0231 13.84865,-1.88825 13.97359,-0.0817 15.11265,0.21522 16.45999,2.40411 7.86409,-0.4235 19.99317,-0.40689 c 4.89446,0.0103 10.38756,0.44024 14.56447,1.42512 4.87695,0.81448 7.37091,3.54674 10.73168,5.19285 3.32227,3.00518 8.86478,2.31961 11.85822,4.63649 5.26839,0.95239 9.73336,6.38564 12.39246,9.27695 5.99352,3.68244 3.87308,4.98111 5.77985,7.53681 2.41444,3.7913 4.93257,6.09727 7.33301,9.99852 2.36456,2.94614 3.64626,8.76361 6.12908,13.16768 0.92727,4.36988 4.80946,7.8556 7.26621,11.98803 2.54971,3.63039 5.77432,8.91257 8.45163,12.83707 3.27322,4.37385 -0.72079,10.33522 1.98293,13.61008 -2.20661,7.55491 5.53804,8.45445 10.14801,11.74752 2.43504,3.66312 10.43355,3.60347 16.05945,5.83069 5.55984,-0.39573 3.9913,3.56488 9.10568,5.09479 0.47857,1.77611 11.15699,2.29177 19.27709,3.25963 6.5975,0.78638 15.7049,1.73795 21.62707,1.73795 l 13.66699,-0.30897 17.58521,-1.20065 14.59707,4.23247 17.09921,-2.26995 11.54093,0.0264 13.65267,-0.29717 15.89955,0.75496 19.36003,-0.0562 11.36306,-0.14061 13.32536,-0.50197 15.43822,0.55426 22.44708,0.17501 7.79924,1.65722 15.30447,-1.84365 15.3399,0.13611 14.47739,-0.31755 18.29506,-0.20445 6.43998,1.18634 19.11839,-3.94938 16.16888,1.8229 13.8263,-2.30266 16.9034,0.25249 13.1543,0.23528 15.2716,0.98441 10.3335,3.2309 18.9364,-0.19649 17.2741,0.94675 13.6598,-1.04893 15.1542,-3.10162 17.9334,-1.04737 4.8508,13.43814 -0.03,15.36242 -8.135,16.12497 -0.01,15.04847 2.3047,15.2152 -15.0666,-0.13433 -21.4635,-2.81286 -9.1529,0.20218 -14.8644,0.0361 -16.6284,0.10377 -11.9876,0.29697 -14.7173,-0.66364 -14.8115,0.54082 -16.3054,0.0181 -14.8967,-0.0572 -14.82102,-2.08236 -13.7952,-0.69931 -17.29139,0.1248 -16.70633,0.26079 -12.63278,0.58341 -11.82956,-0.20378 -16.53754,3.6336 -15.93148,2.63452 -16.25617,1.28183 -15.3579,0.14305 -9.48999,0.0155 -16.98833,-0.57212 -21.87845,-3.35454 -13.20615,0.60282 -12.714,0.20011 -15.2842,1.98079 -13.47456,-0.57696 -15.03492,1.77247 -20.3355,-0.0926 -10.45037,-1.72008 -18.01907,-0.70673 -13.40896,-0.63388 -13.17854,-1.44402 -15.78024,2.81023 -15.58301,1.94262 -16.45736,2.74275 -15.10583,0.45717 -12.87381,0.74611 -15.69265,-0.22409 -11.11645,-1.36209 -13.70277,-0.18776 -20.61449,-1.31338 -14.30547,-0.65829 -15.05521,-0.0829 -14.81931,0.89456 -14.35059,0.0591 -14.63532,-0.40493 -15.67771,-0.57936 -18.91335,-0.31971 -12.0704,-0.43206 -14.52059,-0.52378 -19.98014,-0.1169 -14.7301,0.6094 -9.21476,-1.06974 -15.00033,3.43386 -16.27208,-0.41081 -16.60158,-0.9747 -12.50903,-0.91319 -13.44119,-1.47472 -15.30648,1.12653 -11.8535,-0.0707 -16.19882,2.73885 -17.59582,-0.6798 -17.67422,-0.15497 -11.57906,-0.27854 -11.38121,-1.95932 -22.00095,-0.39408 -12.57412,1.32522 -20.73696,0.23721 -9.079,-3.08024 -17.332685,0.46732 -14.305514,-0.0849 -11.307844,1.90113 -18.422815,0.67244 -12.277616,-0.80737 -15.158034,-2.29793 -17.2697073,-0.18386 0.49588717,-13.42321 0.70386203,-14.35938 1.5933776,-15.60378 -0.9835278,-14.63586 -1.71526693,-14.61629 -4.84735247,-14.73642 2.6355879,-12.29023 -0.079323,-15.56632 -6.5581276,-18.14167 1.7150272,-12.54787 2.2449721,-14.53985 3.8095416,-14.83384 z" /></clipPath></defs><g
     id="layer2"
     style="fill:#f6f5f4"
     transform="translate(0,-458.17001)"><path
       id="path6109"
       clip-path="url(#clipPath3021)"
       mask="none"
       style="display:inline;fill:url(#linearGradient616);stroke:url(#radialGradient3152);stroke-width:40;stroke-dasharray:none"
       d="m -1.3669561,460.15677 15.5016651,-2.6825 15.181412,-0.69452 14.793098,1.88248 16.300221,0.8555 12.666337,-0.3201 15.888685,2.68594 16.703338,-3.20252 15.78913,0.42837 12.62291,3.27714 17.34581,-0.74643 11.40585,3.48371 16.61726,-2.74402 9.30664,-2.42405 21.17086,0.53926 20.87856,3.6015 7.884,-0.0789 15.35117,-0.23135 10.06504,-0.77187 22.91464,1.31575 10.03668,-3.31099 21.07563,0.16359 12.13772,4.3339 16.22671,-0.7793 12.53652,-1.23714 13.15832,0.5567 16.76352,-1.30591 13.54377,2.65524 16.5075,-3.26074 14.66726,0.50609 16.26828,0.49026 13.68885,1.09418 15.93542,0.0869 16.19267,-4.45243 10.73696,0.39355 16.53898,1.34635 15.854,-0.003 14.14574,-0.0217 14.89287,-0.45336 15.58934,-0.13859 16.53358,-0.4301 13.75015,2.99654 19.1236,-0.17648 10.19414,0.57103 7.06436,-0.67064 21.15489,0.34546 16.44691,-0.38352 13.64795,-3.694 16.20292,1.09962 14.17986,0.21852 19.39016,1.27644 17.19515,0.0872 7.88289,-0.15599 14.93756,-0.0462 22.2998,0.16575 14.36709,-1.24915 8.23355,-1.3048 19.67026,-0.0869 11.30354,0.20628 15.55243,-4.3227 16.25307,0.8073 15.08269,0.84632 15.00292,-1.63984 14.63934,0.3756 15.60233,1.88683 21.1975,-2.05177 6.93883,0.0549 18.49902,2.74371 12.4876,-1.31453 15.8464,-0.0452 12.2437,0.70561 16.4981,-0.66617 14.6321,0.0201 15.9674,-0.31897 14.5174,0.32229 14.416,-0.98398 17.5248,0.87441 12.8951,-0.84954 2.7577,15.04568 0.2414,15.04292 -0.8484,17.86159 -0.1115,10.24764 -0.3778,16.538 1.3116,13.43271 4.2628,15.51212 0.5683,14.86436 0.091,14.04345 -0.4604,15.94534 -7.1784,17.10519 -4.6606,9.43178 1.9301,17.15347 -13.6665,2.49446 -15.9995,0.43601 -12.6481,-0.76819 -18.0991,2.20863 -13.8681,-0.69292 -19.5789,-0.0363 -9.8096,0.45355 -8.439,-0.35076 -25.9462,-0.30462 -12.1084,1.68436 -16.51503,0.10697 -12.59293,-0.12249 -13.92991,-0.46002 -15.98065,-1.73526 -19.75602,-0.6548 -10.12624,-0.26597 -15.8465,3.2231 -13.66598,-1.11954 -16.45572,-0.24438 -12.29432,0.31968 -16.97332,0.74845 -14.76684,-1.47807 -14.46061,0.0104 -16.58481,-0.0571 -12.97657,1.59248 -15.48582,-0.82572 -14.25759,-0.92982 -9.43579,-3.45153 -21.31977,-0.13645 -10.18952,-1.64442 -19.56461,1.82173 -14.68487,-0.007 -14.78067,-1.49301 -15.24672,0.0227 -19.82553,-0.34839 -10.44155,-0.64581 -15.66908,-0.40664 -13.78279,1.55357 -15.1252,-0.3523 -14.71001,0.11418 -15.42548,0.59484 -10.90026,0.3596 -15.79264,1.0346 -18.21416,0.31663 -14.28924,-0.1533 -14.0068,0.19482 -16.60039,-1.52915 -18.63035,0.38095 -11.40464,-2.45697 -16.2122,0.35466 -10.90583,3.7653 -16.44207,1.97284 -15.0292,-1.87111 -16.06813,1.34378 -18.39055,0.005 -6.07977,-3.7659 -20.63174,-1.59553 -7.53301,0.62177 -24.25871,0.2271 -12.33321,-1.29125 -16.2658,-1.16096 -12.86429,0.38944 -17.4298,0.10107 -13.46877,-0.40896 -15.9578,-0.24427 -15.981,-0.54506 -13.18412,0.0481 -12.09301,-1.00621 -21.72474,-0.0271 -11.20366,0.47668 -16.836336,1.92869 -14.060795,0.68975 -14.977211,0.74428 -15.420095,-1.01977 -14.271044,0.57768 -16.168983,2.7234 -9.5404876,1.57092 L 3.7674738,633.35666 7.0817297,618.8813 6.5664451,604.83996 6.8587969,590.19287 5.9943658,574.93219 7.6776957,558.02987 8.5792911,545.10361 7.9148689,534.9045 12.582299,514.49477 13.885663,497.26786 11.746951,485.05381 4.781476,469.6469 Z" /></g></svg>
