<?xml version="1.0" encoding="UTF-8" standalone="no"?>
<!-- Created with Inkscape (http://www.inkscape.org/) -->

<svg
   width="1024"
   height="1024"
   viewBox="0 0 1024 1024"
   version="1.1"
   id="svg461"
   inkscape:version="1.2.2 (732a01da63, 2022-12-09)"
   sodipodi:docname="icon_outline.svg"
   inkscape:export-filename="..\..\.src_file\icon_outline.svg"
   inkscape:export-xdpi="96"
   inkscape:export-ydpi="96"
   xmlns:inkscape="http://www.inkscape.org/namespaces/inkscape"
   xmlns:sodipodi="http://sodipodi.sourceforge.net/DTD/sodipodi-0.dtd"
   xmlns:xlink="http://www.w3.org/1999/xlink"
   xmlns="http://www.w3.org/2000/svg"
   xmlns:svg="http://www.w3.org/2000/svg">
  <sodipodi:namedview
     id="namedview463"
     pagecolor="#ffffff"
     bordercolor="#000000"
     borderopacity="0.25"
     inkscape:showpageshadow="2"
     inkscape:pageopacity="0.0"
     inkscape:pagecheckerboard="true"
     inkscape:deskcolor="#d1d1d1"
     inkscape:document-units="px"
     showgrid="true"
     inkscape:zoom="0.5"
     inkscape:cx="333"
     inkscape:cy="549"
     inkscape:window-width="1920"
     inkscape:window-height="1026"
     inkscape:window-x="-8"
     inkscape:window-y="-8"
     inkscape:window-maximized="1"
     inkscape:current-layer="g23207">
    <inkscape:grid
       type="xygrid"
       id="grid756"
       spacingx="1"
       spacingy="1"
       empspacing="32"
       originx="0"
       originy="0" />
  </sodipodi:namedview>
  <defs
     id="defs458">
    <color-profile
       name="Agfa-:-Swop-Standard"
       xlink:href="file:///C:/Windows/system32/spool/drivers/color/RSWOP.icm"
       id="color-profile24991" />
    <linearGradient
       inkscape:collect="always"
       id="linearGradient12363">
      <stop
         style="stop-color:#0da7f2;stop-opacity:1;"
         offset="0.78615385"
         id="stop12359" />
      <stop
         style="stop-color:#39bcff;stop-opacity:1;"
         offset="0.94"
         id="stop12361" />
    </linearGradient>
    <linearGradient
       inkscape:collect="always"
       id="linearGradient9993">
      <stop
         style="stop-color:#bc1010;stop-opacity:1;"
         offset="0.69999999"
         id="stop9991" />
      <stop
         style="stop-color:#dd4641;stop-opacity:1;"
         offset="0.69999999"
         id="stop9989" />
    </linearGradient>
    <linearGradient
       inkscape:collect="always"
       id="linearGradient6115">
      <stop
         style="stop-color:#00998f;stop-opacity:1;"
         offset="0"
         id="stop6111" />
      <stop
         style="stop-color:#003399;stop-opacity:0;"
         offset="0.80000001"
         id="stop6113" />
    </linearGradient>
    <linearGradient
       inkscape:collect="always"
       id="linearGradient5146">
      <stop
         style="stop-color:#ffffff;stop-opacity:1;"
         offset="0.56486487"
         id="stop5144" />
      <stop
         style="stop-color:#b6d8d4;stop-opacity:1;"
         offset="1"
         id="stop5142" />
    </linearGradient>
    <inkscape:path-effect
       effect="powerclip"
       id="path-effect25193"
       is_visible="true"
       lpeversion="1"
       inverse="true"
       flatten="false"
       hide_clip="false"
       message="如果将裁剪转换为路径后没有平面化的结果，请在&lt;b&gt;填充与描边&lt;/b&gt; 对话框中使用“填充规则偶数”。" />
    <radialGradient
       inkscape:collect="always"
       xlink:href="#linearGradient1331"
       id="radialGradient1333"
       cx="63.999901"
       cy="63.999939"
       fx="63.999897"
       fy="63.999939"
       r="51.25"
       gradientUnits="userSpaceOnUse"
       gradientTransform="matrix(10.614645,6.7353823e-6,-4.3734527e-6,9.9902371,-167.32237,-127.37534)" />
    <linearGradient
       inkscape:collect="always"
       id="linearGradient1331">
      <stop
         style="stop-color:#ffffff;stop-opacity:1;"
         offset="0.40000001"
         id="stop1327" />
      <stop
         style="stop-color:#f7f7f7;stop-opacity:1;"
         offset="1"
         id="stop1329" />
    </linearGradient>
    <clipPath
       clipPathUnits="userSpaceOnUse"
       id="clipPath25189">
      <path
         id="path25191"
         style="font-size:192px;line-height:0px;font-family:'Fredoka One';-inkscape-font-specification:'Fredoka One';font-variation-settings:normal;text-align:center;text-orientation:upright;text-anchor:middle;display:none;vector-effect:none;fill:#000000;fill-opacity:1;stroke-width:6.35022;stroke-linecap:butt;stroke-linejoin:miter;stroke-miterlimit:4;stroke-dasharray:50.8019, 50.8019;stroke-dashoffset:0;stroke-opacity:1;-inkscape-stroke:none;stop-color:#000000"
         inkscape:label="X-border"
         d="m 306.9375,168.05664 c -47.71903,5.13714 -83.43478,43.59553 -112.3509,78.68732 -24.64531,29.04191 -33.26108,73.06579 -10.42432,105.73181 32.94401,49.09278 80.01796,86.47386 119.87472,129.74088 17.60397,16.4895 41.06854,32.96957 10.26297,49.56934 -40.95416,43.96043 -86.62756,83.85051 -123.78034,131.13591 -24.7319,30.93426 -26.78757,76.46803 -1.48049,107.84958 27.70344,37.20615 63.88243,74.65299 110.9573,84.51968 50.39222,4.94465 87.1498,-38.03936 119.32476,-70.30779 30.9134,-31.318 61.7833,-62.679 92.67888,-94.01462 47.91817,46.68049 92.05819,97.51007 142.94158,140.96998 27.51327,23.44572 68.74861,32.80149 100.75967,12.6317 41.0573,-25.11499 79.81528,-61.20578 95.44047,-107.86481 12.61473,-51.74919 -31.45893,-92.89781 -64.28969,-126.12864 -32.14468,-32.8233 -64.25431,-65.68112 -96.40277,-98.50081 46.16956,-48.4987 96.05179,-93.68244 139.46608,-144.66557 25.03359,-29.23185 32.23942,-73.45439 9.25817,-106.09302 C 812.57655,222.05167 776.97342,183.58126 730.20817,169.78913 681.94024,160.03304 643.2057,199.92424 612.45858,231.10631 578.9714,265.08095 545.48702,299.05839 512,333.0332 464.93757,286.90937 421.0654,237.3193 371.48558,193.90365 352.99889,179.68267 330.96078,167.39061 306.9375,168.05664 Z" />
      <path
         id="lpe_path-effect25193"
         style="font-size:192px;line-height:0px;font-family:'Fredoka One';-inkscape-font-specification:'Fredoka One';font-variation-settings:normal;text-align:center;text-orientation:upright;text-anchor:middle;display:inline;vector-effect:none;fill:#000000;fill-opacity:1;stroke-width:6.35022;stroke-linecap:butt;stroke-linejoin:miter;stroke-miterlimit:4;stroke-dasharray:50.8019, 50.8019;stroke-dashoffset:0;stroke-opacity:1;-inkscape-stroke:none;stop-color:#000000"
         class="powerclip"
         d="M -16.250649,-15.172151 H 1040.4098 V 1040.2452 H -16.250649 Z M 306.9375,168.05664 c -47.71903,5.13714 -83.43478,43.59553 -112.3509,78.68732 -24.64531,29.04191 -33.26108,73.06579 -10.42432,105.73181 32.94401,49.09278 80.01796,86.47386 119.87472,129.74088 17.60397,16.4895 41.06854,32.96957 10.26297,49.56934 -40.95416,43.96043 -86.62756,83.85051 -123.78034,131.13591 -24.7319,30.93426 -26.78757,76.46803 -1.48049,107.84958 27.70344,37.20615 63.88243,74.65299 110.9573,84.51968 50.39222,4.94465 87.1498,-38.03936 119.32476,-70.30779 30.9134,-31.318 61.7833,-62.679 92.67888,-94.01462 47.91817,46.68049 92.05819,97.51007 142.94158,140.96998 27.51327,23.44572 68.74861,32.80149 100.75967,12.6317 41.0573,-25.11499 79.81528,-61.20578 95.44047,-107.86481 12.61473,-51.74919 -31.45893,-92.89781 -64.28969,-126.12864 -32.14468,-32.8233 -64.25431,-65.68112 -96.40277,-98.50081 46.16956,-48.4987 96.05179,-93.68244 139.46608,-144.66557 25.03359,-29.23185 32.23942,-73.45439 9.25817,-106.09302 C 812.57655,222.05167 776.97342,183.58126 730.20817,169.78913 681.94024,160.03304 643.2057,199.92424 612.45858,231.10631 578.9714,265.08095 545.48702,299.05839 512,333.0332 464.93757,286.90937 421.0654,237.3193 371.48558,193.90365 352.99889,179.68267 330.96078,167.39061 306.9375,168.05664 Z" />
    </clipPath>
    <radialGradient
       inkscape:collect="always"
       xlink:href="#linearGradient5146"
       id="radialGradient5148"
       cx="-512"
       cy="-499.84573"
       fx="-512"
       fy="-499.84573"
       r="300.46143"
       gradientTransform="matrix(1.1715314,5.8419474e-8,-5.3792274e-6,1.1715313,87.821397,73.584924)"
       gradientUnits="userSpaceOnUse"
       spreadMethod="reflect" />
    <radialGradient
       inkscape:collect="always"
       xlink:href="#linearGradient6115"
       id="radialGradient6117"
       cx="511.99945"
       cy="511.99966"
       fx="511.99945"
       fy="511.99966"
       r="322.6347"
       gradientTransform="matrix(1.6861191,1.0250837e-6,-4.8901774e-7,1.586933,-351.27821,-300.51002)"
       gradientUnits="userSpaceOnUse" />
    <radialGradient
       inkscape:collect="always"
       xlink:href="#linearGradient9993"
       id="radialGradient9995"
       cx="511.99997"
       cy="546.88672"
       fx="511.99997"
       fy="546.88672"
       r="402.82175"
       gradientTransform="matrix(1.2710337,0,0,1.2710337,-138.76923,-183.11143)"
       gradientUnits="userSpaceOnUse" />
    <radialGradient
       inkscape:collect="always"
       xlink:href="#linearGradient12363"
       id="radialGradient12367"
       cx="512"
       cy="505.01852"
       fx="512"
       fy="505.01852"
       r="477.71268"
       gradientTransform="matrix(1.0717738,-2.5431916e-8,1.9617726e-8,1.071774,-36.748234,-29.265683)"
       gradientUnits="userSpaceOnUse" />
  </defs>
  <g
     id="g23207"
     style="stroke-width:1.02148"
     transform="matrix(0.9789675,0,0,0.9789675,10.768643,10.768643)">
    <g
       id="g8246"
       inkscape:label="- | -"
       clip-path="url(#clipPath25189)"
       style="display:inline;stroke-width:1.02148"
       transform="translate(0.01416995)"
       inkscape:path-effect="#path-effect25193"
       class="UnoptimicedTransforms">
      <path
         style="color:#000000;fill:url(#radialGradient12367);stroke:#000000;stroke-width:22.4727;stroke-linejoin:miter;stroke-dasharray:5753, 1438.25;stroke-dashoffset:0;stroke-opacity:1"
         d="m 149.96094,149.96094 c -2.1937,2.1937 -4.36742,4.40715 -6.52149,6.64062 l 0.01,-0.008 C 113.74821,187.3774 87.959124,221.84111 66.820312,259.06445 43.386256,300.29965 25.778533,344.69777 14.5625,390.76172 l 124.36523,30.2832 c 8.39848,-34.49232 21.65279,-67.90428 39.18555,-98.75195 l 0.0117,-0.0195 c 15.8075,-27.83543 35.19074,-53.747 57.4375,-76.80469 l 0.01,-0.01 c 1.61767,-1.6773 3.25024,-3.34008 4.89843,-4.98828 z M 2.3671875,462.7793 c -4.1498798,42.83245 -2.87379826,86.11144 3.8125,128.63672 8.13e-4,0.005 0.00114,0.0104 0.00195,0.0156 4.148e-4,0.003 0.00154,0.005 0.00195,0.008 C 14.648132,645.36638 31.762143,697.72958 56.710931,746.2365 L 170.53711,687.69141 c -18.68476,-36.32802 -31.5773,-75.79622 -37.9043,-116.11719 l -0.004,-0.0234 c -5.00412,-31.81683 -5.9667,-64.35594 -2.85938,-96.42773 z M 844.54687,704.00977 c -15.76783,27.32286 -34.95072,52.74324 -56.89257,75.35546 l -0.0156,0.0156 c -23.85701,24.60328 -51.12798,46.04483 -80.67773,63.44726 l -0.008,0.004 c -6.25666,3.68597 -12.61634,7.19448 -19.0664,10.51758 l 58.62305,113.78711 c 8.60453,-4.43309 17.07943,-9.10938 25.41406,-14.01953 39.45236,-23.23529 75.7004,-51.72911 107.59179,-84.61524 29.3433,-30.2398 54.8553,-64.05107 75.89649,-100.51172 z M 199.02344,734.51953 94.689453,808.66992 c 1.726754,2.42961 3.469639,4.83517 5.224609,7.21485 0.0014,0.002 0.0025,0.004 0.0039,0.006 5.37e-4,7.3e-4 0.0014,10e-4 0.002,0.002 27.587878,37.41501 60.226458,70.95289 96.843748,99.55469 37.93309,29.64763 79.97249,53.86845 124.6875,71.79101 l 47.6211,-118.8125 C 335.63217,855.02241 303.9922,836.79739 275.58594,814.5957 l -0.0176,-0.0117 c -27.4284,-21.42258 -51.98971,-46.6653 -72.63084,-74.66017 l -0.004,-0.006 c -1.32589,-1.7978 -2.62994,-3.59712 -3.91015,-5.39844 z m 438.44531,140.41016 c -32.78742,11.35364 -67.22317,18.23737 -101.84766,20.35547 l -0.0176,0.002 C 497.3167,897.63922 458.5446,894.2008 421.27927,885.14263 l -30.23438,124.37687 c 49.78992,12.1027 101.25633,16.667 152.39063,13.5274 46.29853,-2.8323 92.09482,-11.989 135.91797,-27.16404 z"
         id="circle4254"
         inkscape:original-d="m 149.96094,149.96094 c -2.1937,2.1937 -4.36742,4.40715 -6.52149,6.64062 l 0.01,-0.008 C 113.74821,187.3774 87.959124,221.84111 66.820312,259.06445 43.386256,300.29965 25.778533,344.69777 14.5625,390.76172 l 124.36523,30.2832 c 8.39848,-34.49232 21.65279,-67.90428 39.18555,-98.75195 l 0.0117,-0.0195 c 15.8075,-27.83543 35.19074,-53.747 57.4375,-76.80469 l 0.01,-0.01 c 1.61767,-1.6773 3.25024,-3.34008 4.89843,-4.98828 z M 2.3671875,462.7793 c -4.1498798,42.83245 -2.87379826,86.11144 3.8125,128.63672 8.13e-4,0.005 0.00114,0.0104 0.00195,0.0156 4.148e-4,0.003 0.00154,0.005 0.00195,0.008 C 14.648132,645.36638 31.762143,697.72958 56.710931,746.2365 L 170.53711,687.69141 c -18.68476,-36.32802 -31.5773,-75.79622 -37.9043,-116.11719 l -0.004,-0.0234 c -5.00412,-31.81683 -5.9667,-64.35594 -2.85938,-96.42773 z M 844.54687,704.00977 c -15.76783,27.32286 -34.95072,52.74324 -56.89257,75.35546 l -0.0156,0.0156 c -23.85701,24.60328 -51.12798,46.04483 -80.67773,63.44726 l -0.008,0.004 c -6.25666,3.68597 -12.61634,7.19448 -19.0664,10.51758 l 58.62305,113.78711 c 8.60453,-4.43309 17.07943,-9.10938 25.41406,-14.01953 39.45236,-23.23529 75.7004,-51.72911 107.59179,-84.61524 29.3433,-30.2398 54.8553,-64.05107 75.89649,-100.51172 z M 199.02344,734.51953 94.689453,808.66992 c 1.726754,2.42961 3.469639,4.83517 5.224609,7.21485 0.0014,0.002 0.0025,0.004 0.0039,0.006 5.37e-4,7.3e-4 0.0014,10e-4 0.002,0.002 27.587878,37.41501 60.226458,70.95289 96.843748,99.55469 37.93309,29.64763 79.97249,53.86845 124.6875,71.79101 l 47.6211,-118.8125 C 335.63217,855.02241 303.9922,836.79739 275.58594,814.5957 l -0.0176,-0.0117 c -27.4284,-21.42258 -51.98971,-46.6653 -72.63084,-74.66017 l -0.004,-0.006 c -1.32589,-1.7978 -2.62994,-3.59712 -3.91015,-5.39844 z m 438.44531,140.41016 c -32.78742,11.35364 -67.22317,18.23737 -101.84766,20.35547 l -0.0176,0.002 C 497.3167,897.63922 458.5446,894.2008 421.27927,885.14263 l -30.23438,124.37687 c 49.78992,12.1027 101.25633,16.667 152.39063,13.5274 46.29853,-2.8323 92.09482,-11.989 135.91797,-27.16404 z" />
      <path
         style="display:inline;opacity:1;fill:none;stroke:url(#radialGradient5148);stroke-width:130.75;stroke-linecap:butt;stroke-linejoin:bevel;stroke-dasharray:39.225;stroke-dashoffset:0;stroke-opacity:1;paint-order:normal"
         id="path24276"
         inkscape:label="/// inner"
         sodipodi:type="arc"
         sodipodi:cx="-511.80386"
         sodipodi:cy="-511.9964"
         sodipodi:rx="288.0036"
         sodipodi:ry="288.0036"
         sodipodi:start="3.9269908"
         sodipodi:end="0.52359878"
         sodipodi:arc-type="arc"
         sodipodi:open="true"
         transform="scale(-1)"
         d="m -715.45317,-715.64569 a 288.0036,288.0036 0 0 1 378.97479,-24.83933 288.0036,288.0036 0 0 1 74.09295,372.49042" />
      <path
         style="color:#000000;fill:url(#radialGradient9995);stroke:#000000;stroke-width:22.4727;stroke-linejoin:miter;stroke-dasharray:2876.5, 1150.6;stroke-dashoffset:0;stroke-opacity:1"
         d="M 557.61914,2.015625 512.31055,511.26953 455.25195,3.1601563 l -1.55078,0.1738281 -2.15039,0.2519531 -0.28906,0.035156 C 407.91166,8.8033364 365.51283,19.467284 324.78125,35.490234 c -0.008,0.0031 -0.0155,0.0067 -0.0234,0.0098 -37.72539,14.835227 -73.31492,33.996906 -106.31836,57.115234 l 293.64649,419.205072 0.20312,-0.30273 -0.0351,0.39648 0.125,-0.0371 -0.0469,-0.42383 L 796.74414,86.373047 C 764.02098,64.478649 728.96272,46.466107 692.02734,32.611328 648.69473,16.349656 603.61017,6.1073241 557.61914,2.015625 Z M 875.4043,151.16016 512.57422,511.82031 1003.9766,369.69336 c -11.43635,-39.5405 -27.5401,-77.44661 -48.09183,-113.1543 l -0.008,-0.0137 c -22.14894,-38.4917 -49.11724,-73.82137 -80.47247,-105.3652 z m 147.0332,318.88086 -509.90625,42.07226 480.73633,175.00977 c 9.69912,-26.64256 17.19242,-54.07424 22.37692,-82.11719 8.2452,-44.5678 10.5173,-89.82508 6.793,-134.96484 z m -510.25,41.82421 -0.006,0.0293 -0.004,0.0312 c 0.004,-0.0212 -0.005,0.0174 -0.004,0.0117 l 0.01,-0.004 c 0.005,-0.0208 -0.007,-0.0104 0.004,-0.0684 z m -0.0234,0.0977 c -8.1e-4,3.7e-4 -10e-4,0.002 -0.002,0.002 -10e-4,0.005 -3.6e-4,-10e-4 -0.002,0.004 l 0.008,-0.002 c -3.5e-4,-6.9e-4 -0.004,-0.003 -0.004,-0.004 z m -0.0137,0.004 c -0.002,9.5e-4 -0.009,0.003 -0.01,0.004 -0.0106,0.005 -0.0409,0.0233 -0.0996,0.0293 l 0.0352,-0.004 0.10156,-0.0117 0.004,0.002 c 4e-5,-2.3e-4 -4e-5,-0.002 0,-0.002 h 0.004 c -0.003,-9.6e-4 -10e-4,-0.001 -0.004,-0.002 5e-5,-2.4e-4 -5e-5,-0.002 0,-0.002 2.3e-4,-3e-5 -0.002,6e-5 -0.002,0 1.6e-4,-6e-5 -0.002,9e-5 -0.002,0 -6.8e-4,-10e-4 -0.005,-0.008 -0.006,-0.01 0.008,-0.004 -0.0149,0.005 -0.01,0.002 -0.002,-5.6e-4 -0.002,-0.001 -0.004,-0.002 -0.002,0.005 -1.5e-4,-10e-4 -0.002,0.004 2e-4,-1.8e-4 -0.002,6e-5 -0.002,0 -10e-4,-7.1e-4 0.0635,-0.0283 -0.0234,0.006 l 0.0195,-0.008 0.006,-0.002 c -0.002,-7.7e-4 -0.004,-0.003 -0.006,-0.004 z"
         id="path377"
         inkscape:original-d="M 557.61914,2.015625 512.31055,511.26953 455.25195,3.1601563 l -1.55078,0.1738281 -2.15039,0.2519531 -0.28906,0.035156 C 407.91166,8.8033364 365.51283,19.467284 324.78125,35.490234 c -0.008,0.0031 -0.0155,0.0067 -0.0234,0.0098 -37.72539,14.835227 -73.31492,33.996906 -106.31836,57.115234 l 293.64649,419.205072 0.20312,-0.30273 -0.0351,0.39648 0.125,-0.0371 -0.0469,-0.42383 L 796.74414,86.373047 C 764.02098,64.478649 728.96272,46.466107 692.02734,32.611328 648.69473,16.349656 603.61017,6.1073241 557.61914,2.015625 Z M 875.4043,151.16016 512.57422,511.82031 1003.9766,369.69336 c -11.43635,-39.5405 -27.5401,-77.44661 -48.09183,-113.1543 l -0.008,-0.0137 c -22.14894,-38.4917 -49.11724,-73.82137 -80.47247,-105.3652 z m 147.0332,318.88086 -509.90625,42.07226 480.73633,175.00977 c 9.69912,-26.64256 17.19242,-54.07424 22.37692,-82.11719 8.2452,-44.5678 10.5173,-89.82508 6.793,-134.96484 z m -510.25,41.82421 -0.006,0.0293 -0.004,0.0312 c 0.004,-0.0212 -0.005,0.0174 -0.004,0.0117 l 0.01,-0.004 c 0.005,-0.0208 -0.007,-0.0104 0.004,-0.0684 z m -0.0234,0.0977 c -8.1e-4,3.7e-4 -10e-4,0.002 -0.002,0.002 -10e-4,0.005 -3.6e-4,-10e-4 -0.002,0.004 l 0.008,-0.002 c -3.5e-4,-6.9e-4 -0.004,-0.003 -0.004,-0.004 z m -0.0137,0.004 c -0.002,9.5e-4 -0.009,0.003 -0.01,0.004 -0.0106,0.005 -0.0409,0.0233 -0.0996,0.0293 l 0.0352,-0.004 0.10156,-0.0117 0.004,0.002 c 4e-5,-2.3e-4 -4e-5,-0.002 0,-0.002 h 0.004 c -0.003,-9.6e-4 -10e-4,-0.001 -0.004,-0.002 5e-5,-2.4e-4 -5e-5,-0.002 0,-0.002 2.3e-4,-3e-5 -0.002,6e-5 -0.002,0 1.6e-4,-6e-5 -0.002,9e-5 -0.002,0 -6.8e-4,-10e-4 -0.005,-0.008 -0.006,-0.01 0.008,-0.004 -0.0149,0.005 -0.01,0.002 -0.002,-5.6e-4 -0.002,-0.001 -0.004,-0.002 -0.002,0.005 -1.5e-4,-10e-4 -0.002,0.004 2e-4,-1.8e-4 -0.002,6e-5 -0.002,0 -10e-4,-7.1e-4 0.0635,-0.0283 -0.0234,0.006 l 0.0195,-0.008 0.006,-0.002 c -0.002,-7.7e-4 -0.004,-0.003 -0.006,-0.004 z" />
    </g>
    <path
       d="m 656.80776,512 130.25262,133.08688 c 28.39187,28.39186 42.5878,52.84042 42.5878,73.34565 0,19.71658 -14.19593,43.7708 -42.5878,72.16266 C 758.66851,818.1984 734.61429,832 714.89772,832 c -19.71658,0 -43.7708,-14.19593 -72.16266,-42.5878 L 512.01417,656.79359 381.29328,789.4122 C 353.10675,818.00795 328.8472,832 309.13062,832 c -18.92791,0 -42.98213,-13.8016 -72.16266,-41.40481 -28.39187,-28.39186 -42.5878,-52.44608 -42.5878,-72.16266 0,-20.50523 14.19593,-44.95379 42.5878,-73.34565 L 367.22058,512 236.96796,380.09612 c -28.39187,-28.39187 -42.5878,-52.44609 -42.5878,-72.16266 0,-20.50524 14.19593,-44.95379 42.5878,-73.34566 C 266.14849,206.19593 290.20271,192 309.13062,192 c 19.71658,0 43.7708,14.19593 72.16266,42.5878 L 512.01417,367.20641 642.73506,234.5878 C 671.12692,206.19593 695.18114,192 714.89772,192 c 19.71657,0 43.77079,14.19593 72.16266,42.5878 28.39187,28.39187 42.5878,52.84042 42.5878,73.34566 0,19.71657 -14.19593,43.77079 -42.5878,72.16266 z"
       style="font-size:192px;line-height:0px;font-family:'Fredoka One';-inkscape-font-specification:'Fredoka One';font-variation-settings:normal;text-align:center;text-orientation:upright;text-anchor:middle;display:inline;fill:url(#radialGradient1333);fill-opacity:1;stroke:url(#radialGradient6117);stroke-width:16.3438;stroke-linecap:butt;stroke-linejoin:miter;stroke-miterlimit:4;stroke-dasharray:none;stroke-dashoffset:0;stroke-opacity:1;stop-color:#000000"
       id="path21859"
       sodipodi:nodetypes="ccscsccsscscccscscccssscc"
       inkscape:label="X" />
    <path
       id="path12108"
       style="font-size:192px;line-height:0px;font-family:'Fredoka One';-inkscape-font-specification:'Fredoka One';font-variation-settings:normal;text-align:center;text-orientation:upright;text-anchor:middle;display:inline;fill:none;fill-opacity:1;stroke:#000000;stroke-width:20.4297;stroke-linecap:butt;stroke-linejoin:miter;stroke-miterlimit:4;stroke-dasharray:none;stroke-dashoffset:0;stroke-opacity:1;stop-color:#000000"
       inkscape:label="X outline"
       d="m 713.63086,174.01758 c -11.97928,0.27559 -23.60893,4.13332 -34.19508,9.56538 -15.644,8.1037 -29.43616,19.30468 -42.22484,31.32329 -11.97708,11.47081 -23.38129,23.51896 -35.09707,35.25319 -30.0334,30.46704 -60.0668,60.93407 -90.1002,91.40111 -40.40028,-40.96768 -80.76568,-81.97059 -121.23531,-122.86934 -13.10438,-12.69868 -27.17271,-24.64808 -43.19743,-33.52052 -10.52559,-5.78312 -22.07633,-10.13653 -34.13837,-10.99686 -11.31105,-0.87019 -22.62664,1.89904 -32.93304,6.42913 -14.72233,6.49613 -27.82705,16.08962 -40.04858,26.44738 -15.72343,13.45709 -30.26394,28.40697 -42.4756,45.14739 -8.20986,11.35581 -15.26613,23.78083 -19.01363,37.35988 -2.88993,10.46949 -3.48581,21.66521 -1.00689,32.28035 2.85951,12.94808 9.14869,24.85373 16.48736,35.79288 9.8908,14.66853 22.12219,27.57733 34.57421,40.05396 37.65071,38.1272 75.30142,76.2544 112.95213,114.38161 -41.53686,42.45208 -83.10924,84.86998 -124.58331,127.38314 -12.18675,12.98059 -23.47827,27.04268 -31.56491,42.98362 -5.46326,10.9089 -9.27239,22.88039 -9.43293,35.16331 -0.15472,11.9414 3.35302,23.66075 8.56917,34.30975 7.68338,15.63164 18.67024,29.34827 30.35377,42.15627 10.37965,11.21419 21.82008,21.42873 33.96109,30.699 9.91826,7.48525 20.49321,14.23121 31.95883,19.09397 9.89548,4.12476 20.63263,6.70117 31.40658,6.02504 12.86642,-0.75165 25.18389,-5.44849 36.328,-11.72214 13.16878,-7.41572 25.00516,-16.97234 36.01656,-27.27005 10.64549,-10.01355 20.63997,-20.68432 30.97322,-31.0138 32.01636,-32.47836 64.03272,-64.95671 96.04908,-97.43507 40.42252,40.9904 80.80769,82.01816 121.30381,122.93561 13.10508,12.69013 27.17353,24.62979 43.19634,33.49268 10.54045,5.77636 22.10399,10.12104 34.1765,10.97436 12.62268,0.88049 25.21521,-2.41545 36.58794,-7.7284 14.7425,-6.86554 27.86007,-16.71748 40.08952,-27.33598 14.05814,-12.31493 26.9851,-25.96618 38.17027,-40.95076 8.1455,-11.08243 15.26569,-23.14976 19.21688,-36.39908 2.97163,-9.98134 3.76343,-20.67395 1.76809,-30.92357 -2.35727,-13.0047 -8.19533,-25.10742 -15.25926,-36.17841 -9.40063,-14.69484 -21.21818,-27.65201 -33.4547,-40.00542 -38.60318,-39.40375 -77.17091,-78.84355 -115.75828,-118.26384 41.34151,-41.88379 82.72297,-83.72811 123.98835,-125.6857 12.11345,-12.83899 23.45646,-26.6456 31.69894,-42.3334 5.49883,-10.56771 9.46498,-22.17017 9.86545,-34.16059 0.38813,-12.33917 -3.00514,-24.53326 -8.27489,-35.60514 -7.38393,-15.55328 -18.07228,-29.25918 -29.58282,-41.95693 -11.97807,-13.08053 -24.93361,-25.32296 -39.13223,-35.97605 -10.53854,-7.79288 -21.97945,-14.59121 -34.46319,-18.74703 -7.25743,-2.35351 -14.87452,-3.71732 -22.51953,-3.57422 z" />
  </g>
</svg>
