<?xml version="1.0" encoding="UTF-8" standalone="no"?>
<!-- Created with Inkscape (http://www.inkscape.org/) -->

<svg
   width="512"
   height="256"
   viewBox="0 0 170.66667 85.333335"
   version="1.1"
   id="svg5"
   inkscape:export-filename="..\image\texture\start.svg"
   inkscape:export-xdpi="96"
   inkscape:export-ydpi="96"
   inkscape:version="1.2.2 (732a01da63, 2022-12-09)"
   sodipodi:docname="Start.svg"
   xmlns:inkscape="http://www.inkscape.org/namespaces/inkscape"
   xmlns:sodipodi="http://sodipodi.sourceforge.net/DTD/sodipodi-0.dtd"
   xmlns="http://www.w3.org/2000/svg"
   xmlns:svg="http://www.w3.org/2000/svg">
  <sodipodi:namedview
     id="namedview7"
     pagecolor="#ffffff"
     bordercolor="#000000"
     borderopacity="0.25"
     inkscape:showpageshadow="2"
     inkscape:pageopacity="0.0"
     inkscape:pagecheckerboard="true"
     inkscape:deskcolor="#d1d1d1"
     inkscape:document-units="px"
     showgrid="false"
     inkscape:zoom="5.6568542"
     inkscape:cx="374.50143"
     inkscape:cy="85.294756"
     inkscape:window-width="1920"
     inkscape:window-height="1026"
     inkscape:window-x="-8"
     inkscape:window-y="-8"
     inkscape:window-maximized="1"
     inkscape:current-layer="layer4" />
  <defs
     id="defs2" />
  <g
     inkscape:groupmode="layer"
     id="layer3"
     inkscape:label="bg"
     style="display:none;fill:#000000">
    <rect
       style="display:inline;fill:#000000;stroke:none;stroke-width:170.667;stroke-dasharray:42.6667, 17.0667;stroke-dashoffset:0;stop-color:#000000"
       id="rect2667"
       width="170.66667"
       height="85.333336"
       x="0"
       y="0" />
  </g>
  <g
     inkscape:label="1"
     inkscape:groupmode="layer"
     id="layer1"
     style="display:none">
    <text
       xml:space="preserve"
       style="font-style:normal;font-variant:normal;font-weight:normal;font-stretch:normal;font-size:64px;line-height:0px;font-family:'Alibaba PuHuiTi';-inkscape-font-specification:'Alibaba PuHuiTi';text-align:center;text-orientation:upright;text-anchor:middle;display:inline;fill:#26a269;stroke:#00e9d9;stroke-width:170.667;stroke-dasharray:42.6667, 17.0667;stroke-dashoffset:0;stop-color:#000000"
       x="84.117332"
       y="64.90667"
       id="text236"><tspan
         sodipodi:role="line"
         id="tspan234"
         style="font-style:normal;font-variant:normal;font-weight:normal;font-stretch:normal;font-size:64px;font-family:'Alibaba PuHuiTi';-inkscape-font-specification:'Alibaba PuHuiTi';stroke:none;stroke-width:170.667;stroke-dasharray:42.6667, 17.0667;stroke-dashoffset:0"
         x="84.117332"
         y="64.90667">Start</tspan></text>
  </g>
  <g
     inkscape:groupmode="layer"
     id="layer2"
     inkscape:label="2"
     style="display:none">
    <path
       id="rect1831"
       style="fill:#ffffff;stroke-width:170.667;stroke-dasharray:42.6667, 17.0667;stop-color:#000000"
       d="m 0,10.614584 v 43.123047 l 33.392579,4.643881 v 5.307291 L 0,69.660158 V 85.111981 H 170.66667 V 10.614584 l -18.36159,36.790081 -1.29206,2.588826 h -7.17708 V 37.700522 h -6.36589 v 12.292969 h -7.47526 v 5.36263 h 7.47526 V 75.521486 H 124.94401 L 109.56706,53.737631 V 43.31836 h 8.33008 v 10.419271 h 4.58138 V 37.594402 H 104.45638 V 75.521486 H 97.984377 L 92.218101,53.737631 H 80.76172 L 82.552085,43.31836 h 7.123047 L 88.198569,37.594402 H 77.477866 l -8.75651,37.927084 H 59.882163 V 55.24935 h 7.177083 V 49.887371 H 59.882163 V 37.594402 h -6.365886 v 12.292969 h -7.47526 v 5.361979 h 7.47526 V 75.521486 H 15.292969 L 41.574871,68.444663 V 55.24935 L 22.841797,45.555339 41.574871,37.594402 v -7.192709 z m 79.801434,47.766928 h 6.776042 l 4.019531,17.139974 H 76.383465 Z"
       sodipodi:nodetypes="ccccccccccccccccccccccccccccccccccccccccccccccccccccccccccc" />
  </g>
  <g
     inkscape:groupmode="layer"
     id="layer4"
     inkscape:label="3"
     style="fill:#ffffff">
    <rect
       style="display:none;opacity:1;fill:none;stroke:#ffffff;stroke-width:6.66667;stroke-linecap:square;stroke-linejoin:miter;stroke-dasharray:none;stroke-opacity:1;paint-order:stroke markers fill;stop-color:#000000"
       id="rect399"
       width="170.66667"
       height="85.333336"
       x="0"
       y="0"
       ry="0" />
    <rect
       style="display:none;opacity:1;fill:none;stroke:#ffffff;stroke-width:6.66667;stroke-linecap:square;stroke-linejoin:miter;stroke-dasharray:none;stroke-opacity:1;paint-order:stroke markers fill;stop-color:#000000"
       id="rect1111"
       width="142.66667"
       height="57.333332"
       x="14.000002"
       y="14.000001" />
    <text
       xml:space="preserve"
       style="font-weight:bold;font-size:35.5556px;line-height:0px;font-family:'Alibaba Sans';-inkscape-font-specification:'Alibaba Sans Bold';text-align:center;text-decoration-color:#000000;text-orientation:upright;display:none;opacity:1;fill:#ffffff;fill-opacity:1;stroke:#ffffff;stroke-width:6.66667;stroke-linecap:square;stroke-linejoin:miter;stroke-dasharray:none;stroke-opacity:1;paint-order:stroke markers fill;stop-color:#000000"
       x="33.031063"
       y="55.004459"
       id="text1167"><tspan
         sodipodi:role="line"
         id="tspan1165"
         style="font-style:italic;font-variant:normal;font-weight:800;font-stretch:normal;font-size:35.5556px;font-family:'Alibaba Sans';-inkscape-font-specification:'Alibaba Sans Ultra-Bold Italic';fill:#ffffff;fill-opacity:1;stroke-width:6.66667;stroke-dasharray:none"
         x="33.031063"
         y="55.004459">START</tspan></text>
    <g
       aria-label="START"
       id="text1339"
       style="font-weight:bold;font-size:35.5556px;line-height:0px;font-family:'Alibaba Sans';-inkscape-font-specification:'Alibaba Sans Bold';text-align:center;text-orientation:upright;opacity:1;stroke:#ffffff;stroke-width:4.94536;stroke-linecap:square;paint-order:stroke markers fill;stop-color:#000000"
       transform="matrix(1.3293197,0,0,1.3670755,-29.672097,-15.534217)">
      <path
         id="path1341"
         style="font-style:italic;font-weight:800;-inkscape-font-specification:'Alibaba Sans Ultra-Bold Italic';stroke-width:4.94536"
         d="m 41.085938,33.496094 c -1.738486,0.892065 -2.132331,3.070795 -2.063973,4.850533 -0.0046,0.835152 0.228514,1.695653 0.987801,2.155326 2.210581,1.522957 5.134007,2.089931 6.80672,4.334403 1.705905,2.262249 0.919538,5.832756 -1.502033,7.257394 1.660667,-0.321599 2.890041,-1.87726 2.941898,-3.547871 0.27155,-1.45693 0.321583,-3.331958 -1.07613,-4.25184 -2.10271,-1.688117 -5.086823,-2.140443 -6.799362,-4.333101 -1.394132,-2.018956 -0.879066,-5.011196 0.955079,-6.585938 -0.08333,0.04037 -0.166667,0.08073 -0.25,0.121094 z" />
      <path
         id="path1343"
         style="font-style:italic;font-weight:800;-inkscape-font-specification:'Alibaba Sans Ultra-Bold Italic';stroke-width:4.94536"
         d="m 63.097656,33.648438 c -1.205078,6.230468 -2.410156,12.460937 -3.615234,18.691406 0.827014,0.260134 0.583307,-0.777374 0.783958,-1.276349 1.165211,-6.02375 2.329628,-12.047654 3.495339,-18.071307 -0.602561,-0.137516 -0.591257,0.14541 -0.664063,0.65625 z" />
      <path
         id="path1345"
         style="font-style:italic;font-weight:800;-inkscape-font-specification:'Alibaba Sans Ultra-Bold Italic';stroke-width:4.94536"
         d="m 82.013672,32.998047 c 0.802939,-0.0025 1.222144,-0.0083 0.16289,-0.0059 -0.0196,0.06678 -0.135866,-0.04705 -0.16289,0.0059 z m 2.548828,0.01758 c 1.317247,0.229663 2.142791,1.649422 1.951122,2.921793 0.530634,5.475616 1.067481,10.934834 1.62505,16.402426 0.804459,0.171242 1.09894,-0.101905 0.800708,-0.891539 -0.849585,-6.152039 -1.69917,-12.304078 -2.548755,-18.456117 -0.666667,0 -1.333333,-10e-7 -2,0 l 0.09908,0.01351 z M 71.089844,52.339844 c 0.738507,0.188544 0.766349,-0.802026 1.128506,-1.237909 1.460043,-2.735272 2.798763,-5.395386 4.271659,-8.135052 0.527419,-0.996774 1.054838,-1.993547 1.582257,-2.990321 -2.327474,4.121094 -4.654948,8.242188 -6.982422,12.363282 z" />
      <path
         id="path1347"
         style="font-style:italic;font-weight:800;-inkscape-font-specification:'Alibaba Sans Ultra-Bold Italic';stroke-width:4.94536"
         d="m 97.947266,52.339844 c 0.827242,0.25995 0.577123,-0.779542 0.77599,-1.277497 1.118807,-6.040374 2.320604,-12.029524 3.481824,-18.068206 -0.81696,-0.25909 -0.55817,0.790467 -0.76432,1.274415 -1.1645,6.023763 -2.328998,12.047525 -3.493494,18.071288 z M 111.04102,33.236328 c 1.84825,1.083528 2.41955,3.461594 2.03258,5.453742 -0.17959,1.440188 -0.67398,2.894392 -1.6693,3.979852 1.41949,-0.804441 1.8823,-2.528377 2.22004,-4.013057 0.22993,-1.369374 0.30272,-2.84498 -0.18098,-4.162724 -0.50685,-0.869519 -1.56143,-1.188719 -2.5,-1.308594 l 0.0887,0.04613 z m -0.625,19.103516 c 1.06117,0.250882 0.37434,-0.51184 0.0895,-1.041484 -1.14831,-2.006354 -2.29662,-4.012709 -3.44493,-6.019063 1.11849,2.353516 2.23698,4.707031 3.35547,7.060547 z" />
      <path
         id="path1349"
         style="font-style:italic;font-weight:800;-inkscape-font-specification:'Alibaba Sans Ultra-Bold Italic';stroke-width:4.94536"
         d="m 128.45614,30.234825 c -1.20507,6.230468 -3.41317,15.87455 -4.61825,22.105019 0.82699,0.260129 0.58338,-0.777359 0.78409,-1.276324 1.1658,-6.023761 3.33394,-15.461268 4.50018,-21.484945 -0.60239,-0.136738 -0.59407,0.14381 -0.66602,0.65625 z"
         sodipodi:nodetypes="ccccc" />
    </g>
    <path
       id="rect1189"
       style="font-weight:bold;font-size:35.5556px;line-height:0px;font-family:'Alibaba Sans';-inkscape-font-specification:'Alibaba Sans Bold';text-align:center;text-orientation:upright;opacity:1;stroke:#ffffff;stroke-width:0.377953;stroke-linecap:square;stroke-linejoin:round;paint-order:stroke markers fill;stop-color:#000000"
       d="m 34.246027,24.110973 h 29.466562 c 1.043296,0 1.883205,0.863764 1.883205,1.93669 v 1.822768 c 0,1.072926 -0.839909,1.936691 -1.883205,1.936691 H 34.246027 c -1.043294,0 -1.883203,-0.863765 -1.883203,-1.936691 v -1.822768 c 0,-1.072926 0.839909,-1.93669 1.883203,-1.93669 z" />
    <path
       id="rect1028"
       style="font-weight:bold;font-size:35.5556px;line-height:0px;font-family:'Alibaba Sans';-inkscape-font-specification:'Alibaba Sans Bold';text-align:center;text-orientation:upright;opacity:1;stroke:#ffffff;stroke-width:0.377953;stroke-linecap:square;stroke-linejoin:round;paint-order:stroke markers fill;stop-color:#000000"
       d="m 102.42326,13.444306 h 48.97323 c 1.73395,0 3.12988,0.863764 3.12988,1.93669 v 1.822768 c 0,1.072926 -1.39593,1.936691 -3.12988,1.936691 h -48.97323 c -1.73394,0 -3.129867,-0.863765 -3.129867,-1.936691 v -1.822768 c 0,-1.072926 1.395927,-1.93669 3.129867,-1.93669 z" />
  </g>
</svg>
