<?xml version="1.0" encoding="UTF-8" standalone="no"?>
<!-- Created with Inkscape (http://www.inkscape.org/) -->

<svg
   width="512"
   height="512"
   viewBox="0 0 512 512"
   version="1.1"
   id="svg32774"
   inkscape:version="1.2.2 (732a01da63, 2022-12-09)"
   sodipodi:docname="track.svg"
   inkscape:export-filename="..\image\texture\track.svg"
   inkscape:export-xdpi="96"
   inkscape:export-ydpi="96"
   xmlns:inkscape="http://www.inkscape.org/namespaces/inkscape"
   xmlns:sodipodi="http://sodipodi.sourceforge.net/DTD/sodipodi-0.dtd"
   xmlns="http://www.w3.org/2000/svg"
   xmlns:svg="http://www.w3.org/2000/svg">
  <sodipodi:namedview
     id="namedview32776"
     pagecolor="#ffffff"
     bordercolor="#000000"
     borderopacity="0.25"
     inkscape:showpageshadow="2"
     inkscape:pageopacity="0.0"
     inkscape:pagecheckerboard="true"
     inkscape:deskcolor="#d1d1d1"
     inkscape:document-units="px"
     showgrid="false"
     inkscape:zoom="1.0658385"
     inkscape:cx="331.66376"
     inkscape:cy="245.34674"
     inkscape:window-width="1920"
     inkscape:window-height="1026"
     inkscape:window-x="-4"
     inkscape:window-y="-4"
     inkscape:window-maximized="1"
     inkscape:current-layer="layer2" />
  <defs
     id="defs32771">
    <pattern
       inkscape:collect="always"
       patternUnits="userSpaceOnUse"
       width="30.066020"
       height="5.1805778"
       id="Wavywhite"
       inkscape:stockid="Wavy white"
       inkscape:isstock="true">
      <path
         style="fill:white;stroke:none;"
         d="M 7.597,0.061 C 5.079,-0.187 2.656,0.302 -0.01,1.788 L -0.01,3.061 C 2.773,1.431 5.173,1.052 7.472,1.280 C 9.770,1.508 11.969,2.361 14.253,3.218 C 18.820,4.931 23.804,6.676 30.066,3.061 L 30.062,1.788 C 23.622,5.497 19.246,3.770 14.691,2.061 C 12.413,1.207 10.115,0.311 7.597,0.061 z "
         id="path2647" />
    </pattern>
  </defs>
  <g
     inkscape:groupmode="layer"
     id="layer2"
     inkscape:label="Track"
     style="display:inline;fill:none;fill-opacity:1;stroke:#000000;stroke-opacity:1"
     transform="matrix(3.9546288,0,0,4.0443846,2.901431,-1.4562485)">
    <path
       id="path11254"
       style="display:none;fill:url(#Wavywhite);fill-opacity:1;stroke:none;stroke-width:5;stroke-dasharray:none;stroke-opacity:1"
       d="M 64,0 A 64,64 0 0 0 0,64 64,64 0 0 0 64,128 64,64 0 0 0 128,64 64,64 0 0 0 64,0 Z m 0,5 c 32.643958,0 59,26.356042 59,59 0,32.643958 -26.356042,59 -59,59 C 31.356042,123 5,96.643958 5,64 5,31.356042 31.356042,5 64,5 Z"
       inkscape:label="wave" />
    <path
       style="color:#000000;fill:#ffffff;stroke:none;stroke-dasharray:16.4438, 16.4438;-inkscape-stroke:none"
       d="m 64.734375,0.359375 -0.0293,2.7402344 c 5.239901,0.055351 10.473978,0.7555255 15.537109,2.0957031 l 0.365235,0.099609 0.716797,-2.6445313 -0.376953,-0.1035156 h -0.0039 C 75.656806,1.1475591 70.198923,0.41709894 64.734375,0.359375 Z m -16.632813,1.9199219 -0.267578,0.066406 -0.0039,0.00195 c -5.34072,1.3420626 -10.510165,3.3617802 -15.34375,6.0019531 l 1.314453,2.4042966 C 38.429189,8.2258041 43.3826,6.2893602 48.498047,5.0039062 l -0.0078,0.00391 0.263672,-0.066406 z m 48.69336,6.7890625 -1.367188,2.3769536 c 4.512128,2.595378 8.697696,5.762168 12.419926,9.40039 l 0.33593,0.332031 1.92774,-1.949218 -0.3457,-0.339844 -0.002,-0.0039 c -3.88803,-3.800287 -8.25639,-7.105855 -12.968748,-9.8164066 z m -77.84961,9.1347656 c -0.6142,0.578755 -1.209643,1.170989 -1.792968,1.767578 h -0.002 c -3.324943,3.408877 -6.272772,7.187805 -8.7558597,11.255859 l 2.3398437,1.427735 c 2.373198,-3.888021 5.194308,-7.504299 8.376953,-10.767578 l 0.002,-0.002 c 0.56318,-0.575945 1.131549,-1.141548 1.710938,-1.6875 z m 101.412108,14.287109 -2.37109,1.376953 c 2.28687,3.939424 4.11894,8.14259 5.44531,12.5 0.23373,0.770907 0.45382,1.540975 0.65234,2.3125 l 2.6543,-0.683593 c -0.21043,-0.817815 -0.44118,-1.624286 -0.68359,-2.423828 v -0.002 h -0.002 C 124.66468,41.010245 122.7503,36.61226 120.35742,32.490234 Z M 1.6503906,46.574219 l -0.140625,0.49414 v 0.0039 c -1.45164068,5.236733 -2.204006,10.662677 -2.2441406,16.09375 l 2.7421875,0.01953 C 2.0461601,57.996291 2.7634249,52.81156 4.1484375,47.8125 l 0.00195,-0.0039 c 3.407e-4,-0.0012 -3.408e-4,-0.0027 0,-0.0039 L 4.2871094,47.324219 Z M 125.99414,63.65625 c 0.001,5.09905 -0.65017,10.198659 -1.94922,15.126953 l -0.19531,0.724609 -0.006,0.01953 2.63672,0.748047 0.01,-0.03711 0.20313,-0.751953 0.002,-0.0039 c 1.36021,-5.160304 2.0405,-10.493111 2.03906,-15.826172 z M 4.0351562,79.080078 1.3886719,79.794922 1.5078125,80.234375 v 0.0039 c 1.4542393,5.255572 3.6090746,10.312377 6.3808594,15.00586 L 10.25,93.851562 C 7.6017194,89.36721 5.5414895,84.533273 4.1523437,79.515625 l -0.00195,-0.0078 z M 117.50977,94.255859 c -2.29825,3.831245 -5.03003,7.405201 -8.11329,10.642581 -0.61662,0.64636 -1.24281,1.27783 -1.88281,1.89062 l 1.89453,1.98047 c 0.67547,-0.64676 1.33221,-1.30911 1.97266,-1.98047 3.22054,-3.38152 6.0744,-7.115311 8.47852,-11.123044 z m -97.359379,12.210941 -1.916016,1.95898 c 4.005169,3.91482 8.520605,7.30545 13.396484,10.06055 l 1.347657,-2.38672 c -4.668344,-2.63784 -8.993676,-5.88486 -12.828125,-9.63281 z m 74.458984,9.86328 c -4.076759,2.26913 -8.414754,4.07376 -12.896484,5.37695 -0.670589,0.19446 -1.341404,0.37992 -2.011719,0.54883 l 0.669922,2.65625 c 0.709057,-0.17868 1.411856,-0.37055 2.107422,-0.57227 4.678092,-1.36028 9.204216,-3.24484 13.46289,-5.61523 z m -46.763672,5.80859 -0.697266,2.65039 c 5.415759,1.42625 11.011653,2.14749 16.607422,2.16602 l 0.0078,-2.74024 c -5.366262,-0.0178 -10.73178,-0.71038 -15.917969,-2.07617 z"
       id="path26164" />
  </g>
</svg>
